<svg viewBox="0 0 750 500" xmlns="http://www.w3.org/2000/svg"><path d="m241.38 66.32c-.63-7.53-5.32-14.92-12.43-17.47s-16.21.92-18.74 8c-2.27-6.28-12.9-8.49-17.79-5.69s-7.32 8.82-7 14.45c-2.87-4.14-9.26-3.89-13.69-1.51-7.72 4.16-12.19 14-9.53 22.31s12.67 13.82 20.93 10.86c2.76 5.26 6.27 10.3 11.21 13.6s11.52 4.58 16.93 2.13 8.88-9.17 6.67-14.68c6.84-.55 12.65-5.37 16.69-10.92 4.45-6.06 7.37-13.55 6.75-21.08z" fill="#f5f5f5"/><path d="m585 60.56-.77 37.69c4 2.78 8.12 5.33 14.07 5.47l28.45-.28-1.47-43.87z" fill="#e0e0e0"/><path d="m582.99 58.61-.88 43.16h14.18l28.45-.28.51-42.47z" fill="#f5f5f5"/><path d="m600.8 76.27a4 4 0 0 1 1-.88 5.32 5.32 0 0 1 3.5-.83 5.44 5.44 0 0 1 2.39.85 5.36 5.36 0 0 1 1.92 2.17 5.5 5.5 0 0 1 .52 3.16 5.47 5.47 0 0 1 -1.49 3.1 5.61 5.61 0 0 1 -3 1.6 5.45 5.45 0 0 1 -1.66 0 5.13 5.13 0 0 1 -1.52-.44 5.56 5.56 0 0 1 -2.24-1.85 5.42 5.42 0 0 1 -.93-2.35 5.31 5.31 0 0 1 .71-3.5 3.83 3.83 0 0 1 .84-1 11 11 0 0 0 -.74 1.09 5.37 5.37 0 0 0 -.59 3.44 5.2 5.2 0 0 0 .92 2.23 5.28 5.28 0 0 0 2.14 1.74 4.73 4.73 0 0 0 1.45.4 4.88 4.88 0 0 0 1.57 0 5.21 5.21 0 0 0 4.28-4.44 4.86 4.86 0 0 0 0-1.57 5 5 0 0 0 -.45-1.43 5.23 5.23 0 0 0 -4.08-2.92 5.34 5.34 0 0 0 -3.42.71 12.24 12.24 0 0 0 -1.12.72z" fill="#e0e0e0"/><path d="m598.13 69.6-.17-.09-.49-.29-2-1.15h.06l-3.46 3.62v-.09l1.67 2.52a12.92 12.92 0 0 0 -1.18 3v.06h-.06l-2.94.73.09-.11q0 2.37.09 5l-.09-.12 3 .61h.08v.07a12.68 12.68 0 0 0 1.29 3v.07.07l-1.56 2.59v-.17l3.6 3.47h-.18l2.53-1.67h.08.08a12.35 12.35 0 0 0 3 1.18h.09v.09c.22.92.47 1.92.72 2.94l-.15-.12 5-.09-.15.12c.2-.93.41-1.94.62-3v-.09h.09a12.45 12.45 0 0 0 2.95-1.28h.08.08l2.59 1.57h-.19l3.48-3.6v.19l-1.66-2.53v-.08-.08a12 12 0 0 0 1.18-3v-.09h.09l2.94-.72-.11.15c0-1.71-.06-3.38-.08-5l.11.14-3-.62h-.09v-.08a12.51 12.51 0 0 0 -1.28-3v-.07-.06l1.57-2.59v.16c-1.26-1.23-2.46-2.38-3.59-3.49h.14l-2.53 1.65h-.06-.06a12.41 12.41 0 0 0 -3-1.19h-.06v-.06c-.26-1.07-.49-2-.71-2.95l.09.07-5 .07.07-.06c-.26 1.19-.46 2.16-.64 3a12.83 12.83 0 0 0 -2.29.88l-.54.28-.18.1.17-.12.52-.3a11.54 11.54 0 0 1 2.29-.93c.16-.81.35-1.78.59-3v-.06h.06l5-.11h.07v.07c.22.91.46 1.87.73 2.94l-.08-.08a12.5 12.5 0 0 1 3.07 1.2h-.11l2.6-1.45.08-.05.07.06 3.61 3.48.07.07v.08l-1.56 2.59v-.13a12.41 12.41 0 0 1 1.32 3l-.11-.09 3 .61h.11v.11q0 2.44.09 5v.12h-.12l-2.94.72.11-.11a12.26 12.26 0 0 1 -1.21 3.08v-.16l1.66 2.53.06.1-.08.09-3.48 3.61-.08.08-.11-.06-2.59-1.57h.1a12.56 12.56 0 0 1 -3 1.32l.11-.12c-.21 1-.42 2-.62 3v.12h-.13l-5 .08h-.12v-.12c-.25-1-.5-2-.72-2.94l.11.11a13 13 0 0 1 -3.08-1.21h.15l-2.53 1.66-.09.06-.09-.08c-1.25-1.21-2.46-2.39-3.6-3.48l-.07-.08v-.09l1.58-2.59v.14a12 12 0 0 1 -1.31-3l.09.09-3-.62h-.1v-.1c0-1.76 0-3.43-.07-5v-.09h.09l2.94-.71-.07.08a12.37 12.37 0 0 1 1.21-3.06v.09c-.6-.91-1.15-1.77-1.65-2.54l3.5-3.59 1.9 1.19.49.31z" fill="#e0e0e0"/><path d="m564.27 393.05h12.57v59.3h-12.57z" fill="#ebebeb"/><path d="m671.06 393.05h12.57v59.3h-12.57z" fill="#ebebeb"/><path d="m543.49 318.49h158.53v14.66h-158.53z" fill="#ebebeb"/><path d="m695.7 393.79-142.56.31v-60.95h142.56z" fill="#ebebeb"/><path d="m702 333.15c0 .16-35.49.29-79.26.29s-79.27-.13-79.27-.29 35.48-.28 79.27-.28 79.26.13 79.26.28z" fill="#e0e0e0"/><path d="m695.18 394.1c0 .16-31.69.28-70.76.28s-70.76-.12-70.76-.28 31.68-.29 70.76-.29 70.76.13 70.76.29z" fill="#e0e0e0"/><path d="m684 381.75s0-.24 0-.7 0-1.15 0-2c0-1.79 0-4.4 0-7.79 0-6.79-.06-16.65-.1-29l.19.19-119.05.1.29-.29v39.55l-.28-.28 85.15.13 24.88.08h6.69 1.73.61-.57-1.7-6.63l-24.82.08-85.34.13h-.27v-.28c0-12.48 0-25.81 0-39.55v-.28h.29l118.93.16h.18v.19c0 12.42-.08 22.32-.1 29.14v7.76 2s-.08.66-.08.66z" fill="#e0e0e0"/><path d="m569.61 376.56a9.82 9.82 0 0 1 -2.07 2.64 10 10 0 0 1 -2.48 2.25 9.82 9.82 0 0 1 2.07-2.64 10 10 0 0 1 2.48-2.25z" fill="#e0e0e0"/><path d="m569.61 347.39a11 11 0 0 1 -2.61-2.39 11.24 11.24 0 0 1 -2.15-2.78 11.08 11.08 0 0 1 2.57 2.4 10.67 10.67 0 0 1 2.19 2.77z" fill="#e0e0e0"/><path d="m684.16 342.33a10.57 10.57 0 0 1 -2.59 2.74 16.49 16.49 0 0 1 -3 2.32c-.13-.12 1-1.39 2.59-2.75a15.93 15.93 0 0 1 3-2.31z" fill="#e0e0e0"/><path d="m684 381.75a11.86 11.86 0 0 1 -2.87-2.39 12.48 12.48 0 0 1 -2.48-2.79 12 12 0 0 1 2.87 2.38 12.65 12.65 0 0 1 2.48 2.8z" fill="#e0e0e0"/><path d="m678.6 376.56s0-.18 0-.51 0-.84 0-1.48c0-1.32 0-3.24 0-5.73 0-5-.06-12.26-.1-21.45l.18.17-109 .11.28-.28v29.17l-.28-.28 77.77.13 22.89.08h6.17 1.6.56a5 5 0 0 1 -.52 0h-1.57-6.11l-22.83.08-78 .12h-.28v-.28c0-9.37 0-19.14 0-29.17v-.29h.3l109 .11h.17v.18c0 9.23-.07 16.54-.09 21.56v5.68 1.45s-.14.63-.14.63z" fill="#e0e0e0"/><path d="m634.9 359.26a11.51 11.51 0 0 0 -2.92-1.33 9.25 9.25 0 0 0 -2.9-.45h-8a9.24 9.24 0 0 0 -6.39 2.47 5.45 5.45 0 0 0 -1 1.15 3.29 3.29 0 0 0 .31 3.9c1 1 3.13.49 3.31-.91a3.48 3.48 0 0 0 3.69 3.31 4.72 4.72 0 0 0 4-3.42 3.13 3.13 0 0 0 6.23.47c1 1.29 2.45 2.49 4.14 1.95a3 3 0 0 0 1.92-2.15 4.78 4.78 0 0 0 -2.39-4.99z" fill="#e0e0e0"/><path d="m622.49 357.44a11.19 11.19 0 0 0 -5.15 7.08c-.07 0-.12-.53 0-1.37a7.85 7.85 0 0 1 1.35-3 7.94 7.94 0 0 1 2.47-2.22c.84-.44 1.3-.55 1.33-.49z" fill="#ebebeb"/><path d="m625.56 357.77a9 9 0 0 1 0 3.19 9.22 9.22 0 0 1 -.62 3.13 8.81 8.81 0 0 1 .05-3.19 9.2 9.2 0 0 1 .57-3.13z" fill="#ebebeb"/><path d="m629.43 357.68c0-.06.46.11.93.64a5 5 0 0 1 1.13 2.47 9.18 9.18 0 0 1 0 2.67c-.1.68-.21 1.08-.28 1.07s-.12-.42-.13-1.09a15.48 15.48 0 0 0 -.17-2.55 6.27 6.27 0 0 0 -.89-2.33c-.33-.56-.64-.81-.59-.88z" fill="#ebebeb"/><path d="m575.46 413.01h97.68v11.44h-97.68z" fill="#ebebeb"/><path d="m648.58 303.64v14.74h-63.35a7.37 7.37 0 0 1 -7.37-7.37 7.37 7.37 0 0 1 7.37-7.37" fill="#e0e0e0"/><path d="m626.72 306.73h21.87a0 0 0 0 1 0 0v8.56a0 0 0 0 1 0 0h-21.87a3.28 3.28 0 0 1 -3.28-3.28v-2a3.28 3.28 0 0 1 3.28-3.28z" fill="#ebebeb"/><path d="m648.58 288.91v14.73h-63.35a7.37 7.37 0 0 1 -7.37-7.36 7.37 7.37 0 0 1 7.37-7.36z" fill="#ebebeb"/><path d="m626.72 292h21.87a0 0 0 0 1 0 0v8.56a0 0 0 0 1 0 0h-21.87a3.28 3.28 0 0 1 -3.28-3.28v-2a3.28 3.28 0 0 1 3.28-3.28z" fill="#f5f5f5"/><path d="m602.83 265.27-10.07 23.64h6.48l4.47-12.62z" fill="#e0e0e0"/><path d="m633.72 243.89 3.89 45.02h-32.89l-3.61-45.02z" fill="#f5f5f5"/><path d="m630.51 247.46 3.4 37.71-24.68.32-3.34-38.25z" fill="#fafafa"/><path d="m625.27 252.68 1.94 25.95h-13.17l-2.32-25.95z" fill="#e0e0e0"/><circle cx="249.71" cy="307.5" fill="#ebebeb" r="9.02" transform="matrix(.67905703 -.73408552 .73408552 .67905703 -145.59 281.99)"/><circle cx="695.18" cy="211.26" fill="#ebebeb" r="9.02" transform="matrix(.23072909 -.97301803 .97301803 .23072909 329.28 838.97)"/><circle cx="281.88" cy="58.64" fill="#f5f5f5" r="9.02"/><circle cx="470.28" cy="49.62" fill="#ebebeb" r="9.02" transform="matrix(.70710678 -.70710678 .70710678 .70710678 102.66 347.07)"/><path d="m320.14 300.92a9 9 0 0 0 -1.16 12.8l-1.46 1.42a9.08 9.08 0 0 0 11.33 12.45 8.93 8.93 0 1 0 12.84-6.88 11.73 11.73 0 0 0 7.17-9.07 10.28 10.28 0 0 0 -5.11-10.19 9.17 9.17 0 0 0 -11 2 9 9 0 0 0 -12.61-2.53z" fill="#f5f5f5"/><path d="m248.74 248c-2.81-6.13-11.34-8.78-17.13-5.32l-1.53-2.41a12.67 12.67 0 0 0 -20.3 11.82 12.48 12.48 0 1 0 5.63 19.55 16.37 16.37 0 0 0 10.3 12.44 14.33 14.33 0 0 0 15.4-4c3.63-4.33 3.95-11.21.46-15.64 6.43-2.13 9.97-10.32 7.17-16.44z" fill="#ebebeb"/><path d="m703.61 158.3c6.7-4.14 8.54-14.41 3.69-20.61l2.57-2.11a14.79 14.79 0 0 0 -16.63-21.81 14.56 14.56 0 1 0 -21.82 9.34 19.11 19.11 0 0 0 -12.93 13.72 16.74 16.74 0 0 0 6.86 17.27c5.53 3.58 13.54 3 18.18-1.73 3.37 7.11 13.38 10.07 20.08 5.93z" fill="#ebebeb"/><path d="m141.79 59.57h6.92v148.76h-6.92z" fill="#e0e0e0"/><rect fill="#f5f5f5" height="147.81" rx=".1" width="99.31" x="41.43" y="60.72"/><path d="m141.79 209.68h-101.41a.09.09 0 0 1 -.1-.1v-149.91a.09.09 0 0 1 .1-.1h101.41a.1.1 0 0 1 .1.1v149.91a.1.1 0 0 1 -.1.1zm-99.11-2.3h96.81a.1.1 0 0 0 .1-.1v-145.28a.11.11 0 0 0 -.1-.1h-96.81a.1.1 0 0 0 -.1.1v145.28a.09.09 0 0 0 .1.1z" fill="#ebebeb"/><rect fill="#fafafa" height="129.48" rx=".1" width="79.49" x="51.43" y="69.84"/><rect fill="#ebebeb" height="52.31" rx=".06" width="44.63" x="68.77" y="106.55"/><path d="m109.86 152.45c.06.17-2.14 1.14-6.33.65a15.53 15.53 0 0 1 -7.13-2.85 14.48 14.48 0 0 1 -5.53-8.71 12.53 12.53 0 0 1 4.23-11.9 11.26 11.26 0 0 1 3.21-1.88 8.57 8.57 0 0 1 4-.46 7.11 7.11 0 0 1 4 1.75 5.24 5.24 0 0 1 1.58 4.68 7.68 7.68 0 0 1 -2.2 4 14.53 14.53 0 0 1 -3.36 2.47 18.31 18.31 0 0 1 -8 2.29 16 16 0 0 1 -8.55-1.94 15.58 15.58 0 0 1 -6.29-6.52 13.3 13.3 0 0 1 -1.13-9.14 13.61 13.61 0 0 1 4.81-7.52 12 12 0 0 1 4-2 10.09 10.09 0 0 1 4.54-.14 7.39 7.39 0 0 1 4.12 2.33 6.8 6.8 0 0 1 1.62 4.4 8.52 8.52 0 0 1 -1.07 4.2 11.31 11.31 0 0 1 -2.55 3.06 17.09 17.09 0 0 1 -6.32 3.36 16.11 16.11 0 0 1 -6.65.51 13.63 13.63 0 0 1 -5.79-2.21 12.56 12.56 0 0 1 -5.53-8.76 10.56 10.56 0 0 1 2-7.51 9 9 0 0 1 3.79-3c1-.39 1.63-.38 1.66-.28s-.47.37-1.32.94a9.81 9.81 0 0 0 -3 3.16 9.39 9.39 0 0 0 -1.2 6.42 10.5 10.5 0 0 0 4.91 6.88 12.14 12.14 0 0 0 10.15 1 14.33 14.33 0 0 0 5.07-2.87 6.26 6.26 0 0 0 2.52-4.86 3.41 3.41 0 0 0 -3.05-3.37 6.73 6.73 0 0 0 -2.92.13 8.62 8.62 0 0 0 -2.76 1.45 10.07 10.07 0 0 0 -3.47 5.53 9.68 9.68 0 0 0 .85 6.63 11.93 11.93 0 0 0 4.81 5 12.35 12.35 0 0 0 6.6 1.54 15 15 0 0 0 6.5-1.78 10.85 10.85 0 0 0 2.59-1.82 4.36 4.36 0 0 0 1.32-2.15 1.87 1.87 0 0 0 -.53-1.72 3.89 3.89 0 0 0 -2.15-.95 5.38 5.38 0 0 0 -2.53.22 7.86 7.86 0 0 0 -2.38 1.29 9.82 9.82 0 0 0 -3.59 9.1 12.53 12.53 0 0 0 4.25 7.53 15 15 0 0 0 6.11 3.05c3.8.89 6.06.46 6.09.77z" fill="#e0e0e0"/><path d="m704.52 453.1c0 .15-147.55.26-329.5.26s-329.54-.11-329.54-.26 147.52-.26 329.52-.26 329.52.16 329.52.26z" fill="#263238"/><path d="m443.4 77.27c-17.1-24.32-47.35-38.76-77-36.78s-57.73 20.32-71.4 46.69c-19.91-3.63-42.82-2.07-56.91 12.46-12.44 12.83-14.4 34.53-4.46 49.38-8.81 0-16 7.18-20.36 14.86-10.16 18-8.45 43.63 7.76 56.48 11 8.71 25.86 10.17 39.83 11.28a64.13 64.13 0 0 0 91.66 45c1.75-.87 3.62-1.85 5.54-1.53a9.4 9.4 0 0 1 3.21 1.49 59.64 59.64 0 0 0 89.33-37.07s47.79 19.55 72.68-22.46c8.5-14.36 6.11-33.33.38-49 15.74-1.58 29.08-16.2 29.2-32s-13-30.65-28.72-32.45c1.36-10.84-9.2-24.31-18.09-30.67s-21-9.06-30.91-9.07c-11.78 0-19.87 3-31.7 13.4" fill="#fafafa"/><path d="m443.4 77.27s.45-.41 1.35-1.19c.45-.39 1-.88 1.71-1.43s1.49-1.21 2.43-1.91a52.57 52.57 0 0 1 7.31-4.74 35.32 35.32 0 0 1 11.29-3.73 46.08 46.08 0 0 1 7.12-.53 59.62 59.62 0 0 1 25.16 5.38 46.05 46.05 0 0 1 16.08 13 45 45 0 0 1 6.1 9.66 29.89 29.89 0 0 1 1.94 5.65 20 20 0 0 1 .36 6.14l-.14-.18a32.67 32.67 0 0 1 18.62 9.14 33.55 33.55 0 0 1 10.08 20.11 29.52 29.52 0 0 1 -1.17 12 33.38 33.38 0 0 1 -5.84 11 35.18 35.18 0 0 1 -9.67 8.43 31.15 31.15 0 0 1 -12.49 4.19l.17-.27c3.4 9.45 5.73 19.81 5.06 30.5a43.34 43.34 0 0 1 -3.87 15.7 58.67 58.67 0 0 1 -9.45 13.61 51.65 51.65 0 0 1 -13.41 10.36c-.62.36-1.28.65-1.93 1s-1.29.62-2 .9c-1.35.51-2.67 1.1-4.06 1.5a53.32 53.32 0 0 1 -8.49 2 66.17 66.17 0 0 1 -17.68.29 73.92 73.92 0 0 1 -17.56-4.1l.33-.17a61.23 61.23 0 0 1 -20.51 32.6 65.51 65.51 0 0 1 -8.25 5.72 58.21 58.21 0 0 1 -29.38 7.68 59.11 59.11 0 0 1 -10.35-.87c-1.73-.25-3.42-.69-5.12-1.08s-3.38-.93-5-1.55-3.27-1.28-4.89-2-3.19-1.52-4.7-2.44c-.76-.44-1.54-.88-2.28-1.34a6.81 6.81 0 0 0 -2.34-1c-1.67-.28-3.34.49-4.89 1.27a65.66 65.66 0 0 1 -42 5.69 62 62 0 0 1 -18.04-6.4 64 64 0 0 1 -15.11-11.51 68.18 68.18 0 0 1 -11.08-15.18 65.34 65.34 0 0 1 -6.24-17.48l.23.21c-5.71-.47-11.41-1-17-2a59.6 59.6 0 0 1 -16.13-5 41.07 41.07 0 0 1 -7.07-4.53l-1.6-1.37a15.84 15.84 0 0 1 -1.51-1.44l-1.4-1.56-.69-.78c-.22-.27-.41-.56-.62-.84a39.8 39.8 0 0 1 -6.78-14.93 50.46 50.46 0 0 1 3-31.54 47.73 47.73 0 0 1 3.76-6.93 36.21 36.21 0 0 1 5-6 24.29 24.29 0 0 1 6.35-4.44 18 18 0 0 1 7.48-1.76l-.2.37a40.5 40.5 0 0 1 -5.64-29.5 41.2 41.2 0 0 1 5.25-13.83 37.53 37.53 0 0 1 9.8-10.61 46 46 0 0 1 12.51-6.5 62.71 62.71 0 0 1 13.42-2.93 92.93 92.93 0 0 1 26.27 1.22l-.21.1a88.51 88.51 0 0 1 25.35-29.44 90.46 90.46 0 0 1 31.41-14.92l4-.93 3.94-.67c1.29-.25 2.6-.35 3.89-.48s2.56-.31 3.83-.33c2.54-.08 5-.22 7.48-.06 1.22.07 2.43 0 3.62.18l3.54.36c1.17.09 2.31.31 3.44.5l3.36.56 3.24.76c1.06.26 2.13.47 3.15.81 2 .64 4.07 1.14 6 1.9s3.79 1.36 5.53 2.19a92.39 92.39 0 0 1 17.68 10.17l3.38 2.65c1.1.82 2 1.76 3 2.57 1.92 1.63 3.47 3.3 4.9 4.74a26.53 26.53 0 0 1 2 2.12l1.63 1.9c1 1.15 1.78 2.22 2.42 3 1.25 1.67 1.88 2.54 1.88 2.54s-.66-.84-1.93-2.5c-.64-.83-1.39-1.9-2.43-3l-1.65-1.89a28.31 28.31 0 0 0 -1.95-2.11c-1.44-1.43-3-3.1-4.92-4.71-1-.81-1.88-1.74-3-2.56l-3.38-2.63a92.91 92.91 0 0 0 -17.76-10.12c-1.74-.82-3.61-1.46-5.52-2.16s-3.91-1.25-5.95-1.9c-1-.33-2.08-.54-3.14-.79l-3.23-.75-3.35-.56c-1.13-.19-2.26-.4-3.43-.49l-3.53-.35c-1.18-.14-2.39-.11-3.61-.18-2.43-.15-4.92 0-7.45.07-1.27 0-2.54.23-3.82.34s-2.59.23-3.88.49l-3.92.67-3.94.93a90.07 90.07 0 0 0 -31.27 14.9 88.1 88.1 0 0 0 -25.22 29.34l-.06.12h-.15a92.52 92.52 0 0 0 -26.17-1.18 61.64 61.64 0 0 0 -13.33 2.92 45.49 45.49 0 0 0 -12.39 6.45 36.89 36.89 0 0 0 -9.67 10.49 40.68 40.68 0 0 0 -5.21 13.67 40 40 0 0 0 5.59 29.16l.24.37h-.44a17.31 17.31 0 0 0 -7.28 1.71 23.84 23.84 0 0 0 -6.22 4.36 35.72 35.72 0 0 0 -5 5.92 47.61 47.61 0 0 0 -3.72 6.85 50.09 50.09 0 0 0 -3 31.24 39.66 39.66 0 0 0 6.78 14.7c.21.27.4.56.61.83l.69.76 1.37 1.53a13.32 13.32 0 0 0 1.49 1.42l1.54 1.38a40.35 40.35 0 0 0 7 4.46 59.13 59.13 0 0 0 16 5c5.56 1 11.24 1.5 16.95 2h.2v.19a64.64 64.64 0 0 0 6.19 17.34 67.64 67.64 0 0 0 11 15.06 63.39 63.39 0 0 0 15 11.41 61.32 61.32 0 0 0 17.9 6.43 65.12 65.12 0 0 0 41.69-5.64c1.56-.78 3.31-1.62 5.21-1.32a7.37 7.37 0 0 1 2.52 1c.75.48 1.51.9 2.27 1.34 1.5.91 3.09 1.64 4.65 2.42s3.2 1.41 4.85 1.94 3.31 1.06 5 1.55 3.36.82 5.07 1.06a58.21 58.21 0 0 0 10.27.87 57.65 57.65 0 0 0 29.12-7.61 63.8 63.8 0 0 0 8.26-5.66 60.68 60.68 0 0 0 20.35-32.32l.07-.27.27.1a73.38 73.38 0 0 0 17.42 4.07 65.61 65.61 0 0 0 17.55-.29 53.21 53.21 0 0 0 8.42-2c1.38-.4 2.69-1 4-1.49.66-.28 1.29-.6 1.94-.9a21.22 21.22 0 0 0 1.91-.95 51 51 0 0 0 13.29-10.25 58.68 58.68 0 0 0 9.39-13.5 43 43 0 0 0 3.82-15.52c.68-10.6-1.64-20.91-5-30.33l-.09-.25h.27a30.86 30.86 0 0 0 12.33-4.13 35 35 0 0 0 9.56-8.32 33.26 33.26 0 0 0 5.79-10.86 29.06 29.06 0 0 0 1.16-11.82 33 33 0 0 0 -10-19.9 32.39 32.39 0 0 0 -18.4-9.08h-.16v-.16a19.62 19.62 0 0 0 -.36-6 28.23 28.23 0 0 0 -1.91-5.6 44.6 44.6 0 0 0 -6-9.6 45.79 45.79 0 0 0 -16-13 56.58 56.58 0 0 0 -17.19-4.92 58 58 0 0 0 -7.85-.49 47 47 0 0 0 -7.1.51 35.48 35.48 0 0 0 -11.26 3.68 52.68 52.68 0 0 0 -7.32 4.65c-.94.69-1.75 1.33-2.44 1.89s-1.27 1-1.72 1.41c-.87.73-1.34 1.11-1.34 1.11z" fill="#263238"/><path d="m536 294.58a9.3 9.3 0 0 0 -12.19-2.87l-.6.4a8.95 8.95 0 1 0 12.79 2.47z" fill="#fafafa"/><path d="m536 294.58a6 6 0 0 1 1 2 9.39 9.39 0 0 1 -.11 6 9 9 0 0 1 -2.22 3.55 8.17 8.17 0 0 1 -1.9 1.39 8.79 8.79 0 0 1 -2.36.82 9.92 9.92 0 0 1 -5.28-.45 8.79 8.79 0 0 1 -4.45-3.54 9.1 9.1 0 0 1 -1.28-5.54 10.78 10.78 0 0 1 .59-2.67 9.85 9.85 0 0 1 1.24-2.31 9 9 0 0 1 1.77-1.83 8.47 8.47 0 0 1 2.07-1.11 9 9 0 0 1 4.15-.48 9.31 9.31 0 0 1 5.44 2.45 6.12 6.12 0 0 1 1.35 1.73 16.38 16.38 0 0 0 -1.48-1.58 9.46 9.46 0 0 0 -5.34-2.24 8.88 8.88 0 0 0 -4 .52 8.35 8.35 0 0 0 -2 1.08 8.48 8.48 0 0 0 -1.65 1.68 9.84 9.84 0 0 0 -1.17 2.2 10.26 10.26 0 0 0 -.54 2.54 8.63 8.63 0 0 0 1.21 5.23 8.34 8.34 0 0 0 4.19 3.33 9.44 9.44 0 0 0 5 .46 8.56 8.56 0 0 0 2.24-.75 8 8 0 0 0 1.81-1.3 8.64 8.64 0 0 0 2.17-3.36 9.42 9.42 0 0 0 .27-5.78 16.44 16.44 0 0 0 -.72-2.04z" fill="#263238"/><path d="m523.92 255.77a13.66 13.66 0 0 0 -17.92-4.23l-.89.59a13.15 13.15 0 1 0 18.81 3.64z" fill="#fafafa"/><path d="m523.92 255.77a5.38 5.38 0 0 1 .45.7 5.08 5.08 0 0 1 .46.91 7.25 7.25 0 0 1 .5 1.29 13.82 13.82 0 0 1 -.21 8.73 13.26 13.26 0 0 1 -3.24 5.17 12.42 12.42 0 0 1 -2.77 2 13.21 13.21 0 0 1 -3.44 1.19 14.29 14.29 0 0 1 -11.33-2.66 12 12 0 0 1 -2.86-3.16 13.26 13.26 0 0 1 -1.87-8.07 16.16 16.16 0 0 1 .86-3.89 15 15 0 0 1 1.81-3.38 13.65 13.65 0 0 1 2.57-2.58 11.38 11.38 0 0 1 1.48-.92c.25-.13.5-.28.76-.4l.78-.3a13.13 13.13 0 0 1 6.06-.72 13.82 13.82 0 0 1 8 3.55 8 8 0 0 1 1 1 4.71 4.71 0 0 1 .62.8 6.69 6.69 0 0 1 .44.71 20.58 20.58 0 0 0 -2.15-2.37 13.92 13.92 0 0 0 -7.88-3.33 12.87 12.87 0 0 0 -5.87.75l-.75.3c-.25.12-.48.26-.73.39a10.33 10.33 0 0 0 -1.42.91 12.59 12.59 0 0 0 -2.45 2.49 13.9 13.9 0 0 0 -1.73 3.26 15.55 15.55 0 0 0 -.82 3.76 12.88 12.88 0 0 0 1.8 7.76 12.4 12.4 0 0 0 6.22 4.95 14.16 14.16 0 0 0 7.44.67 13.39 13.39 0 0 0 3.32-1.12 12.31 12.31 0 0 0 2.68-1.93 12.85 12.85 0 0 0 3.19-5 13.89 13.89 0 0 0 .37-8.54 19.8 19.8 0 0 0 -1.29-2.92z" fill="#263238"/><path d="m638 215a17.46 17.46 0 0 0 -1.81-17.65c8.74-3.72 13.44-14.89 10-23.75s-14.44-13.93-23.41-10.78a20.36 20.36 0 0 0 -38.6-4.69 12.26 12.26 0 0 0 -13.46 18.14 13.44 13.44 0 0 0 3.78 24 18.67 18.67 0 1 0 32 19.16 20.53 20.53 0 0 0 17 6 18.84 18.84 0 0 0 14.5-10.43z" fill="#fafafa"/><path d="m638 215s-.08.2-.27.58a15.3 15.3 0 0 1 -.94 1.66 18.29 18.29 0 0 1 -5.17 5.2 18.72 18.72 0 0 1 -11.13 3.25 20.88 20.88 0 0 1 -14.08-6.17h.28a19.19 19.19 0 0 1 -3.93 4.72 19.88 19.88 0 0 1 -5.61 3.38 18.44 18.44 0 0 1 -6.82 1.32 19.07 19.07 0 0 1 -17.71-12.5 19.33 19.33 0 0 1 1.67-16.3l.14.36a13.7 13.7 0 0 1 -3.9-24.5l-.08.34a12.54 12.54 0 0 1 13.75-18.52l-.29.15c4-8.63 13.8-13.46 22.41-11.83a21 21 0 0 1 11 6 20.6 20.6 0 0 1 5.6 10.57l-.3-.17a18.3 18.3 0 0 1 8.78-.68 20.79 20.79 0 0 1 7.79 3.07 18.43 18.43 0 0 1 5.59 5.6 16.79 16.79 0 0 1 2.49 7 19.86 19.86 0 0 1 -3 12.75 20.09 20.09 0 0 1 -3.77 4.4 18.59 18.59 0 0 1 -4.4 2.74v-.19a16.8 16.8 0 0 1 3.13 7.32 18.07 18.07 0 0 1 0 5.84 17.4 17.4 0 0 1 -.94 3.45c-.31.74-.5 1.11-.5 1.11s0-.1.11-.29l.33-.85a19 19 0 0 0 .87-3.44 18.21 18.21 0 0 0 -.08-5.78 16.78 16.78 0 0 0 -3.14-7.21l-.1-.12.15-.07a19 19 0 0 0 4.32-2.73 20.25 20.25 0 0 0 3.68-4.35 19.53 19.53 0 0 0 3.07-12.5 16.48 16.48 0 0 0 -2.45-6.83 18.21 18.21 0 0 0 -5.49-5.46 20.6 20.6 0 0 0 -7.64-3 18.1 18.1 0 0 0 -8.55.68l-.25.09-.05-.26a20.21 20.21 0 0 0 -5.57-10.31 20.44 20.44 0 0 0 -10.8-5.86c-8.37-1.58-18 3.15-21.85 11.55l-.09.2h-.21a12 12 0 0 0 -13.18 17.76l.12.2-.19.14a13.19 13.19 0 0 0 3.7 23.52l.31.09-.17.28a18.9 18.9 0 0 0 -1.64 15.84 18.68 18.68 0 0 0 17.27 12.24 18.08 18.08 0 0 0 6.73-1.28 19.47 19.47 0 0 0 5.51-3.29 18.75 18.75 0 0 0 3.88-4.62l.11-.2.16.17a20.72 20.72 0 0 0 13.84 6.14 19 19 0 0 0 16.21-8.23c.46-.7.78-1.25 1-1.63s.29-.54.29-.54z" fill="#263238"/><path d="m262.38 133.16-.5 24.65c2.6 1.82 5.31 3.48 9.2 3.58l18.6-.19-1-28.69z" fill="#e0e0e0"/><path d="m261.08 131.89-.5 24.65 9.2 3.58 18.6-.19.34-27.77z" fill="#25bcbf"/><path d="m263.7 154.65-3.12 1.89a10.6 10.6 0 0 0 3.54 2.49 15.38 15.38 0 0 0 5.66 1.09 10.2 10.2 0 0 1 -6.08-5.47z" fill="#25bcbf"/><path d="m263.7 154.65c-1.14 1.11-2.36 2.45-3.12 1.89a10.6 10.6 0 0 0 3.54 2.49 15.38 15.38 0 0 0 5.66 1.09 10.2 10.2 0 0 1 -6.08-5.47z" opacity=".3"/><path d="m285.55 140.9s-4.7 0-10.51 0-10.5-.13-10.5-.18 4.7 0 10.51 0 10.5.14 10.5.18z" fill="#263238"/><path d="m285.42 144.69c0 .05-4.7 0-10.5 0s-10.51-.13-10.51-.18 4.71 0 10.51 0 10.5.14 10.5.18z" fill="#263238"/><path d="m285.51 148.05s-4.7 0-10.51 0-10.5-.13-10.5-.18 4.7 0 10.51 0 10.5.13 10.5.18z" fill="#263238"/><path d="m285.46 151.29s-4.71 0-10.51 0-10.5-.13-10.5-.18 4.7 0 10.5 0 10.51.13 10.51.18z" fill="#263238"/><path d="m300.57 176.83-.51 24.65c2.6 1.82 5.31 3.48 9.21 3.58l18.6-.19-1-28.69z" fill="#e0e0e0"/><path d="m299.27 175.56-.51 24.65 9.21 3.57 18.6-.18.33-27.78z" fill="#25bcbf"/><path d="m301.89 198.32-3.12 1.89a10.6 10.6 0 0 0 3.54 2.49 15.38 15.38 0 0 0 5.66 1.09 10.2 10.2 0 0 1 -6.08-5.47z" fill="#25bcbf"/><path d="m301.89 198.32c-1.14 1.11-2.36 2.45-3.12 1.89a10.6 10.6 0 0 0 3.54 2.49 15.38 15.38 0 0 0 5.66 1.09 10.2 10.2 0 0 1 -6.08-5.47z" opacity=".3"/><path d="m302.38 133.16-.5 24.65c2.6 1.82 5.31 3.48 9.21 3.58l18.6-.19-1-28.69z" fill="#e0e0e0"/><path d="m301.09 131.89-.58 28.23h9.28l18.6-.19.33-27.77z" fill="#25bcbf"/><path d="m377.06 133.16-.5 24.65c2.6 1.82 5.31 3.48 9.2 3.58l18.6-.19-1-28.69z" fill="#e0e0e0"/><path d="m375.76 131.89-.5 24.65 9.2 3.58 18.6-.19.34-27.77z" fill="#455a64"/><path d="m378.38 154.65-3.12 1.89a10.6 10.6 0 0 0 3.54 2.46 15.38 15.38 0 0 0 5.66 1.09 10.2 10.2 0 0 1 -6.08-5.44z" fill="#455a64"/><path d="m378.38 154.65c-1.14 1.11-2.36 2.45-3.12 1.89a10.6 10.6 0 0 0 3.54 2.46 15.38 15.38 0 0 0 5.66 1.09 10.2 10.2 0 0 1 -6.08-5.44z" opacity=".3"/><path d="m332.8 109.35c0 .14-18 .26-40.21.26s-40.22-.12-40.22-.26 18-.26 40.22-.26 40.21.11 40.21.26z" fill="#263238"/><path d="m449.64 134.61-.5 24.65c2.6 1.81 5.31 3.48 9.2 3.57l18.6-.18-.94-28.65z" fill="#e0e0e0"/><path d="m448.34 133.33-.5 24.66 9.2 3.57 18.6-.18.34-27.78z" fill="#25bcbf"/><path d="m451 156.09-3.12 1.9a10.6 10.6 0 0 0 3.54 2.49 15.37 15.37 0 0 0 5.66 1.08 10.16 10.16 0 0 1 -6.08-5.47z" fill="#25bcbf"/><path d="m451 156.09c-1.14 1.12-2.36 2.46-3.12 1.9a10.6 10.6 0 0 0 3.54 2.49 15.37 15.37 0 0 0 5.66 1.08 10.16 10.16 0 0 1 -6.08-5.47z" opacity=".3"/><g fill="#263238"><path d="m472.81 142.35s-4.7 0-10.51 0-10.5-.13-10.5-.17 4.7 0 10.51 0 10.5.12 10.5.17z"/><path d="m472.68 146.14s-4.7 0-10.5 0-10.51-.13-10.51-.18 4.71 0 10.51 0 10.5.13 10.5.18z"/><path d="m472.77 149.5s-4.7 0-10.51 0-10.5-.13-10.5-.18 4.7 0 10.51 0 10.5.13 10.5.18z"/><path d="m472.72 152.73c0 .05-4.71 0-10.51 0s-10.5-.14-10.5-.18 4.7 0 10.5 0 10.51.14 10.51.18z"/><path d="m488.18 106.06c0 .14-11.55.26-25.79.26s-25.79-.12-25.79-.26 11.54-.26 25.79-.26 25.79.11 25.79.26z"/><path d="m410.9 107.2c0 .15-9.48.26-21.17.26s-21.19-.11-21.19-.26 9.49-.26 21.19-.26 21.17.12 21.17.26z"/><path d="m318.22 187.93a9.92 9.92 0 0 0 -.24-1.58 6.47 6.47 0 0 0 -.73-1.72 6.2 6.2 0 0 0 -1.65-1.83 6.39 6.39 0 0 0 -2.72-1.2 6.49 6.49 0 0 0 -3.38.29 6.15 6.15 0 0 0 -1.63.88 7 7 0 0 0 -.73.62 9.09 9.09 0 0 0 -.63.74 6.42 6.42 0 0 0 0 7.61 9.09 9.09 0 0 0 .63.74 7 7 0 0 0 .73.62 6.15 6.15 0 0 0 1.63.88 6.49 6.49 0 0 0 3.38.29 6.39 6.39 0 0 0 2.72-1.2 6.2 6.2 0 0 0 1.65-1.83 6.47 6.47 0 0 0 .73-1.72 9.78 9.78 0 0 0 .24-1.59s0 0 0 .11 0 .18 0 .31a3.44 3.44 0 0 1 0 .51 5.16 5.16 0 0 1 -.12.68 6.35 6.35 0 0 1 -.71 1.76 6.67 6.67 0 0 1 -1.66 1.88 6.56 6.56 0 0 1 -6.25 1 6 6 0 0 1 -1.68-.89 9.19 9.19 0 0 1 -.76-.64 9.78 9.78 0 0 1 -.65-.77 6.59 6.59 0 0 1 0-7.83 8.11 8.11 0 0 1 .66-.77 7.67 7.67 0 0 1 .75-.64 6.35 6.35 0 0 1 1.68-.9 6.72 6.72 0 0 1 3.47-.27 6.57 6.57 0 0 1 2.78 1.25 6.67 6.67 0 0 1 1.66 1.88 6.23 6.23 0 0 1 .71 1.76 5.16 5.16 0 0 1 .12.68 3.44 3.44 0 0 1 0 .51v.31s.01.07 0 .07z"/><path d="m316.16 192.69s1.47 1.32 3.18 3 3.08 3.14 3 3.18-1.46-1.32-3.18-3-3.03-3.14-3-3.18z"/><path d="m312.19 152.34h1.27 3.52-.05c0-.6 0-1.28 0-2a10.81 10.81 0 0 0 3-2.05 7.88 7.88 0 0 0 1.26-1.62 5.72 5.72 0 0 0 .69-2.05 6.76 6.76 0 0 0 -1.08-4.5 8.1 8.1 0 0 0 -3.92-3.13 6.72 6.72 0 0 0 -3.76-.26 7.35 7.35 0 0 0 -3.27 1.51 6.62 6.62 0 0 0 -2 2.73c-.09.25-.2.5-.27.76l-.18.77a8 8 0 0 0 -.14 1.52 7.46 7.46 0 0 0 .18 1.43 6.37 6.37 0 0 0 .46 1.27 7.44 7.44 0 0 0 1.42 2 9.64 9.64 0 0 0 2.93 2c0 .55-.06 1-.08 1.26v.32a.5.5 0 0 1 0 .11v-.42c0-.29 0-.71.05-1.27a9.73 9.73 0 0 1 -3-2 7.2 7.2 0 0 1 -1.45-2 6.6 6.6 0 0 1 -.48-1.29 7.67 7.67 0 0 1 -.19-1.46 8.14 8.14 0 0 1 .13-1.54c.06-.26.13-.52.19-.78s.18-.52.26-.78a6.91 6.91 0 0 1 2-2.79 7.51 7.51 0 0 1 3.33-1.54 6.87 6.87 0 0 1 3.85.26 8.32 8.32 0 0 1 4 3.19 6.93 6.93 0 0 1 .95 2.25 4.34 4.34 0 0 1 .11.59 4.07 4.07 0 0 1 .06.59v.59l-.06.57a5.73 5.73 0 0 1 -.71 2.11 7.79 7.79 0 0 1 -1.29 1.63 10.92 10.92 0 0 1 -3.05 2.07v2h-3.54-1.25z"/><path d="m317.05 153.67a19.9 19.9 0 0 1 -2.46.08 17.8 17.8 0 0 1 -2.46-.08 43.26 43.26 0 0 1 4.92 0z"/><path d="m315.46 155.53a1.93 1.93 0 0 1 -.88.1 1.89 1.89 0 0 1 -.86-.15 3.88 3.88 0 0 1 .87 0 4.19 4.19 0 0 1 .87.05z"/><path d="m313.19 152.34v-.34c0-.22 0-.52 0-.91 0-.81.05-2 .08-3.36 0-.71 0-1.49.06-2.32a1.56 1.56 0 0 0 -.08-.61.38.38 0 0 0 -.43-.28.54.54 0 0 0 -.38.43.85.85 0 0 0 .08.62 1.41 1.41 0 0 0 1.1.73 1.44 1.44 0 0 0 1.27-.51 2.19 2.19 0 0 0 .54-1.37 1.28 1.28 0 0 0 -.15-.73.48.48 0 0 0 -.89.33 1.48 1.48 0 0 0 .34.67 2.71 2.71 0 0 0 1.19.91 1.44 1.44 0 0 0 .71.09 1.55 1.55 0 0 0 .65-.27 1.18 1.18 0 0 0 .4-.54.79.79 0 0 0 0-.64.57.57 0 0 0 -.49-.33.69.69 0 0 0 -.51.3 3 3 0 0 0 -.3 1.22c-.09.83-.15 1.6-.2 2.31-.09 1.41-.17 2.55-.23 3.35 0 .39 0 .7-.06.91v.24a.2.2 0 0 1 0 .08v-.32-.91c0-.79.08-1.94.18-3.36 0-.71.1-1.48.18-2.32 0-.2.05-.42.08-.63a1.57 1.57 0 0 1 .24-.64.77.77 0 0 1 .61-.36.68.68 0 0 1 .61.4 1 1 0 0 1 .05.74 1.22 1.22 0 0 1 -.46.61 1.5 1.5 0 0 1 -.71.3 1.6 1.6 0 0 1 -.78-.09 2.87 2.87 0 0 1 -1.25-1 1.53 1.53 0 0 1 -.37-.74.62.62 0 0 1 1.16-.43 1.45 1.45 0 0 1 .17.81 2.33 2.33 0 0 1 -.58 1.47 1.6 1.6 0 0 1 -1.4.55 1.59 1.59 0 0 1 -1.21-.81 1.05 1.05 0 0 1 -.08-.72.69.69 0 0 1 .48-.52.49.49 0 0 1 .37.08.61.61 0 0 1 .21.29 1.83 1.83 0 0 1 .09.65c0 .83-.06 1.61-.08 2.32-.06 1.41-.1 2.56-.13 3.36v.91.24c-.07.12-.07.14-.08.14z"/><path d="m316.61 154.6a13 13 0 0 1 -2 .08 13.24 13.24 0 0 1 -2-.08 14.16 14.16 0 0 1 2-.07 14 14 0 0 1 2 .07z"/></g><path d="m262.2 177.28-.5 24.65c2.6 1.81 5.31 3.48 9.2 3.57l18.6-.18-1-28.69z" fill="#e0e0e0"/><path d="m260.9 176-.57 28.23h9.27l18.61-.18.33-27.78z" fill="#25bcbf"/><path d="m272 196.46h1.27 3.51v.05c0-.61 0-1.29-.05-2a10.78 10.78 0 0 0 3-2.06 7.19 7.19 0 0 0 1.26-1.61 5.53 5.53 0 0 0 .7-2.06 6.89 6.89 0 0 0 -1.08-4.5 8.31 8.31 0 0 0 -3.91-3.28 6.82 6.82 0 0 0 -3.76-.26 7.46 7.46 0 0 0 -3.27 1.51 6.74 6.74 0 0 0 -2 2.73c-.08.26-.2.51-.26.77s-.13.51-.19.77a7.84 7.84 0 0 0 -.13 1.51 6.58 6.58 0 0 0 .18 1.43 6.47 6.47 0 0 0 .46 1.28 7.32 7.32 0 0 0 1.42 2 9.58 9.58 0 0 0 2.93 2c0 .55-.06 1-.08 1.25v.33a.87.87 0 0 0 0 .11v-.43c0-.3 0-.72 0-1.27a9.57 9.57 0 0 1 -3-2 7.46 7.46 0 0 1 -1.45-2 6.58 6.58 0 0 1 -.47-1.29 6.85 6.85 0 0 1 -.19-1.45 8.18 8.18 0 0 1 .13-1.55c.06-.26.12-.52.19-.78a7.92 7.92 0 0 1 .26-.78 6.81 6.81 0 0 1 2-2.79 7.51 7.51 0 0 1 3.33-1.54 6.83 6.83 0 0 1 3.84.27 8.27 8.27 0 0 1 4 3.18 6.71 6.71 0 0 1 1 2.26 7.19 7.19 0 0 1 .17 1.18v.58s0 .39-.05.58a5.58 5.58 0 0 1 -.72 2.1 7.75 7.75 0 0 1 -1.28 1.64 10.91 10.91 0 0 1 -3.06 2.06v2h-3.54-1.16z" fill="#263238"/><path d="m276.86 197.79a43.09 43.09 0 0 1 -4.91 0 37.71 37.71 0 0 1 4.91 0z" fill="#263238"/><path d="m275.27 199.65a2 2 0 0 1 -.87.1 1.92 1.92 0 0 1 -.86-.16 4.74 4.74 0 0 1 .87 0 3.62 3.62 0 0 1 .86.06z" fill="#263238"/><path d="m273 196.46v-.32c0-.22 0-.53 0-.92 0-.8.05-1.95.08-3.36 0-.71 0-1.49.06-2.32a1.53 1.53 0 0 0 -.08-.6.39.39 0 0 0 -.43-.29.59.59 0 0 0 -.39.43.93.93 0 0 0 .08.63 1.44 1.44 0 0 0 1.1.73 1.46 1.46 0 0 0 1.28-.52 2.17 2.17 0 0 0 .54-1.37 1.3 1.3 0 0 0 -.15-.73.48.48 0 0 0 -.89.34 1.4 1.4 0 0 0 .34.66 2.76 2.76 0 0 0 1.18.92 1.48 1.48 0 0 0 .72.08 1.35 1.35 0 0 0 .64-.27 1.09 1.09 0 0 0 .41-.54.84.84 0 0 0 0-.64.56.56 0 0 0 -.49-.37.68.68 0 0 0 -.51.31 2.81 2.81 0 0 0 -.3 1.21c-.09.83-.15 1.61-.2 2.31-.1 1.41-.18 2.55-.23 3.36 0 .38-.05.69-.06.91v.24a.45.45 0 0 0 0 .08.28.28 0 0 1 0-.08v-.24c0-.22 0-.53 0-.92 0-.79.09-1.94.18-3.35.05-.71.1-1.49.19-2.32 0-.21 0-.42.08-.64a1.77 1.77 0 0 1 .23-.64.81.81 0 0 1 .61-.36.69.69 0 0 1 .61.4 1 1 0 0 1 .05.75 1.36 1.36 0 0 1 -.45.61 1.8 1.8 0 0 1 -.71.3 1.84 1.84 0 0 1 -.78-.09 2.87 2.87 0 0 1 -1.26-1 1.63 1.63 0 0 1 -.37-.73.69.69 0 0 1 .38-.75.68.68 0 0 1 .78.31 1.4 1.4 0 0 1 .17.81 2.28 2.28 0 0 1 -.57 1.47 1.6 1.6 0 0 1 -1.41.56 1.57 1.57 0 0 1 -1.2-.81 1 1 0 0 1 -.08-.73.7.7 0 0 1 .48-.52.5.5 0 0 1 .36.08.68.68 0 0 1 .22.29 1.64 1.64 0 0 1 .08.65c0 .84 0 1.61-.08 2.33-.05 1.41-.09 2.55-.12 3.36v.91.24a.28.28 0 0 1 -.09.15z" fill="#263238"/><path d="m276.43 198.72a28.46 28.46 0 0 1 -4 0 24.92 24.92 0 0 1 4 0z" fill="#263238"/><path d="m377.62 175.19-.5 24.65c2.6 1.82 5.31 3.48 9.2 3.58l18.61-.19-1-28.69z" fill="#e0e0e0"/><path d="m376.32 173.92-.57 28.22h9.28l18.6-.18.33-27.77z" fill="#455a64"/><path d="m450.11 175.19-.5 24.65c2.6 1.82 5.31 3.48 9.2 3.58l18.6-.19-1-28.69z" fill="#e0e0e0"/><path d="m448.81 173.92-.57 28.22h9.27l18.6-.18.34-27.77z" fill="#25bcbf"/><path d="m377.62 221.21-.5 24.65c2.6 1.81 5.31 3.48 9.2 3.58l18.61-.19-1-28.69z" fill="#e0e0e0"/><path d="m376.32 219.94-.57 28.22h9.28l18.6-.18.33-27.78z" fill="#455a64"/><path d="m398.79 153.17a1.41 1.41 0 0 1 -.36 0h-1-3.84-12.67-1v-.12c0-4.73 0-9 0-12.06 0-1.52 0-2.75 0-3.63 0-.41 0-.73 0-1a1.55 1.55 0 0 1 0-.34 2.3 2.3 0 0 1 0 .34v1 3.63 12.06l-.12-.12h.9 12.67 3.84 1z" fill="#263238"/><path d="m396.7 140.29a5.29 5.29 0 0 1 -.56.53l-1.59 1.4c-1.35 1.17-3.22 2.77-5.3 4.53l-.31.26-.08.07-.08-.07-2.36-2.19h.15l-3.46 2.86-1 .8a1.86 1.86 0 0 1 -.38.27 2.28 2.28 0 0 1 .33-.32l1-.85 3.41-2.93.07-.06.08.07 2.36 2.18h-.16l.32-.26c2.08-1.76 4-3.35 5.34-4.48l1.64-1.34a3.94 3.94 0 0 1 .58-.47z" fill="#263238"/><path d="m396.7 144.23a6.2 6.2 0 0 1 -.08-1.18c0-.72 0-1.73 0-2.86l.12.12h-.2c-1.17 0-2.23 0-3 0a5.46 5.46 0 0 1 -1.24-.09 6.93 6.93 0 0 1 1.24-.08h3 .32v.12 2.86a6.64 6.64 0 0 1 -.16 1.11z" fill="#263238"/><path d="m388.15 180s0-.1 0-.3a1.19 1.19 0 0 1 .43-.78 1.24 1.24 0 0 1 .6-.28h.75 1.8a1.37 1.37 0 0 1 1 .58 1.28 1.28 0 0 1 .24.59 2.49 2.49 0 0 1 0 .62c-.08.78-.17 1.61-.26 2.47-.19 1.75-.4 3.65-.62 5.65l-.08.74a2 2 0 0 1 -.23.81 1.76 1.76 0 0 1 -2.84.3 2 2 0 0 1 -.45-1.4c-.08-1.71-.16-3.27-.22-4.63s-.08-2.28-.11-3.13a5.73 5.73 0 0 1 0-1.15 4.32 4.32 0 0 1 .17 1.14q.12 1.27.27 3.12c.1 1.35.22 2.91.34 4.62a1.53 1.53 0 0 0 .34 1.1 1.26 1.26 0 0 0 1.05.41 1.29 1.29 0 0 0 1-.63 4.59 4.59 0 0 0 .25-1.36c.23-2 .45-3.9.66-5.64.1-.86.21-1.69.3-2.46a1 1 0 0 0 -.83-1.38h-1.77c-.25 0-.52 0-.71 0a1.08 1.08 0 0 0 -.52.19 1.47 1.47 0 0 0 -.56.8z" fill="#263238"/><path d="m392.55 195.82s0-.21 0-.56a2.26 2.26 0 0 0 -.43-1.32 2.06 2.06 0 0 0 -1.76-.85 2 2 0 0 0 -1.2 3.59 2.09 2.09 0 0 0 1.91.38 2.29 2.29 0 0 0 1.15-.8c.21-.27.29-.46.33-.44a1 1 0 0 1 -.16.55 2.23 2.23 0 0 1 -1.2 1 2.42 2.42 0 0 1 -2.33-.36 2.48 2.48 0 0 1 1.49-4.44 2.41 2.41 0 0 1 2.07 1.12 2.24 2.24 0 0 1 .34 1.55c-.07.41-.19.59-.21.58z" fill="#263238"/><path d="m469.52 192.6a3.53 3.53 0 0 1 0 .52 6.16 6.16 0 0 1 -.19 1.57 5 5 0 0 1 -1.16 2.21 5.46 5.46 0 0 1 -2.9 1.59 7.22 7.22 0 0 1 -4-.2 5.67 5.67 0 0 1 -3.48-3.06 7 7 0 0 1 0-5.17 6.5 6.5 0 0 1 4.2-3.66l-.19.25c0-.87 0-1.8 0-2.74 0-.5 0-1 0-1.5v-.26h.26 3.17.26v.25c0 2.54-.08 5-.12 7.23v.37l-.28-.06a4.57 4.57 0 0 0 -2.21.06 2.69 2.69 0 0 0 -1.85 3.12 2.58 2.58 0 0 0 .94 1.5 2.4 2.4 0 0 0 1.56.47 2.49 2.49 0 0 0 2.63-2.52v-.12h.11l2.42.1a4 4 0 0 1 .79.07h-.86-2.35l.12-.12a3 3 0 0 1 -1.25 2.41 3.13 3.13 0 0 1 -1.62.46 2.75 2.75 0 0 1 -1.79-.52 3 3 0 0 1 -1.11-1.71 3.12 3.12 0 0 1 2.11-3.65 4.91 4.91 0 0 1 2.44-.08l-.28.23c0-2.28.05-4.7.08-7.23l.25.26h-3.17l.26-.26v1.5 2.73.19l-.19.06a6 6 0 0 0 -3.87 3.35 6.53 6.53 0 0 0 -.05 4.8 5.3 5.3 0 0 0 3.2 2.85 6.93 6.93 0 0 0 3.82.25 5.21 5.21 0 0 0 2.78-1.44 4.94 4.94 0 0 0 1.17-2.07 7.66 7.66 0 0 0 .29-1.49 4.63 4.63 0 0 1 .06-.54z" fill="#263238"/><path d="m462.12 177.92a21.65 21.65 0 0 1 .18 3l-.22-.23h3.22l-.3.31v-.78c0-.26 0-.52 0-.78 0-.49 0-1 0-1.42l.22.23a23 23 0 0 1 -3.21-.27 16.66 16.66 0 0 1 3.22-.18h.22v.2 1.42 1.58l-.27.26c-1.18 0-2.29 0-3.22-.08h-.22v-.22a16.54 16.54 0 0 1 .38-3.04z" fill="#263238"/><path d="m388 231.48a2.71 2.71 0 0 1 .66-.57 3.45 3.45 0 0 1 2.29-.54 3.54 3.54 0 0 1 1.56.55 3.65 3.65 0 0 1 1.26 1.42 3.52 3.52 0 0 1 .32 1 3.59 3.59 0 0 1 -1 3.11 3.65 3.65 0 0 1 -2 1 3.56 3.56 0 0 1 -1.08 0 3.39 3.39 0 0 1 -1-.29 3.57 3.57 0 0 1 -1.46-1.21 3.47 3.47 0 0 1 -.61-1.53 3.52 3.52 0 0 1 .46-2.31 2.61 2.61 0 0 1 .55-.68s-.21.23-.48.71a3.44 3.44 0 0 0 1.62 4.85 3 3 0 0 0 .94.27 3.25 3.25 0 0 0 1 0 3.42 3.42 0 0 0 1.88-1 3.53 3.53 0 0 0 .92-1.91 3.48 3.48 0 0 0 0-1 3.57 3.57 0 0 0 -.3-.94 3.44 3.44 0 0 0 -1.19-1.36 3.28 3.28 0 0 0 -1.48-.55 3.44 3.44 0 0 0 -2.23.46c-.44.3-.63.54-.63.52z" fill="#263238"/><path d="m386.23 227.12-.11-.06-.33-.19-1.27-.75c-.58.61-1.34 1.41-2.27 2.37v-.06l1.09 1.65a7.91 7.91 0 0 0 -.76 2l-1.93.47.06-.07c0 1 0 2.13.06 3.28l-.06-.08 1.94.4h.05v.05a8.37 8.37 0 0 0 .85 1.94v.05c-.32.52-.67 1.1-1 1.69v-.11l2.36 2.27h-.12l1.66-1.09h.05a7.93 7.93 0 0 0 2 .77h.06v.06c.15.6.31 1.26.48 1.92l-.1-.07 3.27-.06-.09.08c.12-.61.26-1.27.4-1.94v-.06h.06a7.93 7.93 0 0 0 1.93-.83h.06.05l1.69 1h-.12l2.27-2.36v.12c-.36-.55-.73-1.1-1.08-1.65v-.05a8.09 8.09 0 0 0 .78-2v-.05h.06l1.92-.47-.07.1c0-1.12 0-2.21-.06-3.28l.08.09-1.94-.4h-.05a7.8 7.8 0 0 0 -.84-1.94v-.05c.36-.58.7-1.14 1-1.69v.11l-2.34-2.23h.1l-1.66 1a7.84 7.84 0 0 0 -2-.78c-.17-.7-.32-1.33-.47-1.92h.06-3.27c-.16.77-.3 1.41-.41 1.93a8.38 8.38 0 0 0 -1.49.57l-.36.19-.11.06.1-.08.35-.2a7.85 7.85 0 0 1 1.5-.6c.11-.53.24-1.17.39-1.94l3.27-.07h.05c.15.59.3 1.22.48 1.92v-.05a8.24 8.24 0 0 1 2 .78h-.08l1.65-1.09h.06v.05c.75.71 1.53 1.47 2.36 2.27h.05v.06l-1 1.69v-.09a8.38 8.38 0 0 1 .87 2l-.07-.06 1.94.4h.07v.08c0 1.06 0 2.16.06 3.27v.08h-.07l-1.93.47.08-.07a8.4 8.4 0 0 1 -.79 2v-.1l1.09 1.66v.06l-.05.06-2.36 2.45-.05.05h-.07l-1.7-1h.11a8.55 8.55 0 0 1 -2 .86l.07-.08-.41 1.94v.08h-.08l-3.28.06h-.08v-.08c-.16-.66-.32-1.32-.47-1.92l.07.07a8.5 8.5 0 0 1 -2-.79h.1l-1.65 1.09h-.07-.05l-2.37-2.28-.06-.05v-.06l1-1.69v.08a7.93 7.93 0 0 1 -.86-2l.07.06-1.94-.4h-.06v-.06c0-1.15 0-2.24-.05-3.28v-.05h.05l1.93-.46-.05.05a7.8 7.8 0 0 1 .79-2v.06l-1.08-1.66 2.29-2.34 1.25.78.32.2z" fill="#263238"/><path d="m591.56 176.13-.56 26.69c2.81 2 5.74 3.77 10 3.87l20.14-.2-1-31.06z" fill="#e0e0e0"/><path d="m590.15 174.75-.62 30.56h10.04l20.14-.2.36-30.07z" fill="#25bcbf"/><path d="m602.76 187.25a2.88 2.88 0 0 1 .71-.62 3.84 3.84 0 0 1 2.53-.63 3.84 3.84 0 0 1 3 2.14 3.85 3.85 0 0 1 .37 2.24 3.91 3.91 0 0 1 -3.21 3.33 3.88 3.88 0 0 1 -2.25-.29 4 4 0 0 1 -1.59-1.31 3.8 3.8 0 0 1 -.66-1.67 3.85 3.85 0 0 1 .5-2.5 3 3 0 0 1 .6-.73s-.23.25-.52.77a3.78 3.78 0 0 0 -.42 2.44 3.57 3.57 0 0 0 .65 1.58 3.72 3.72 0 0 0 1.52 1.23 3.43 3.43 0 0 0 1 .29 3.69 3.69 0 0 0 4.15-3.17 3.44 3.44 0 0 0 0-1.11 3.14 3.14 0 0 0 -.32-1 3.66 3.66 0 0 0 -2.89-2.07 3.85 3.85 0 0 0 -2.42.5c-.51.33-.73.6-.75.58z" fill="#263238"/><path d="m600.87 182.53-.12-.06-.35-.21-1.38-.81-2.41 2.55v-.07l1.18 1.79a8.91 8.91 0 0 0 -.83 2.14l-2.08.52.06-.08c0 1.12 0 2.3.07 3.55l-.07-.08 2.1.43a8.68 8.68 0 0 0 .91 2.1v.05.05l-1.1 1.83v-.12c.8.77 1.67 1.6 2.55 2.46h-.12l1.79-1.18h.06a8.52 8.52 0 0 0 2.12.83h.06v.06c.16.65.33 1.36.51 2.08l-.1-.08 3.54-.06-.1.08c.14-.66.28-1.38.43-2.1v-.06h.06a8.5 8.5 0 0 0 2.09-.91h.06.06l1.83 1.11h-.14l2.47-2.55v.13l-1.18-1.79v-.06a9.26 9.26 0 0 0 .84-2.13v.06h.06l2.09-.51-.08.1c0-1.21 0-2.39-.06-3.55l.08.1-2.1-.44h-.06v-.06a9.2 9.2 0 0 0 -.91-2.1v-.05l1.11-1.83v.11l-2.55-2.47h.1l-1.79 1.17a8.49 8.49 0 0 0 -2.13-.84h-.05c-.18-.76-.34-1.44-.5-2.09h.06l-3.54.05h.05c-.18.84-.33 1.52-.46 2.09a9.76 9.76 0 0 0 -1.62.62l-.38.2-.13.07.12-.08c.08 0 .2-.13.37-.22a9.16 9.16 0 0 1 1.62-.66c.11-.57.25-1.26.42-2.1l3.54-.08v.05c.16.64.33 1.33.51 2.08a8.41 8.41 0 0 1 2.17.85h-.08l1.79-1.18h.06l2.61 2.37.05.05v.06l-1.05 1.83v-.09a8.94 8.94 0 0 1 .93 2.14l-.07-.07 2.1.43h.08v.08c0 1.15 0 2.34.06 3.55v.08h-.09l-2.08.51.08-.08a8.81 8.81 0 0 1 -.85 2.18v-.11l1.18 1.79v.08l-.06.06-2.46 2.55-.06.06h-.07l-1.84-1.11h.15a9 9 0 0 1 -2.15.93l.08-.08-.44 2.1v.08h-.08l-3.55.06h-.09v-.08c-.17-.72-.35-1.43-.51-2.08l.08.08a8.93 8.93 0 0 1 -2.17-.86h.1l-1.79 1.18h-.07-.06c-.88-.86-1.74-1.7-2.55-2.47l-.05-.06v-.06l1.11-1.83v.1a9.27 9.27 0 0 1 -.93-2.15l.07.06-2.09-.44h-.07v-.07c0-1.24 0-2.43-.06-3.55v-.06h.06l2.09-.51-.06.06a9.18 9.18 0 0 1 .86-2.17v.07l-1.17-1.8 2.48-2.54 1.35.84.34.22z" fill="#263238"/><path d="m537.79 324.09-.62.07c-3.53.63-5.41 5.54-3.21 8.37s7.42 2.21 8.9-1.06-1.49-7.59-5.07-7.38z" fill="#fafafa"/><path d="m537.79 324.09s.11 0 .32 0a3.9 3.9 0 0 1 1 .06 5.41 5.41 0 0 1 3 1.82 5.65 5.65 0 0 1 1.3 5 5.31 5.31 0 0 1 -4.94 3.69 5.61 5.61 0 0 1 -3.26-.72 4.64 4.64 0 0 1 -2-2.38 5.87 5.87 0 0 1 .69-5.09 5.08 5.08 0 0 1 2.72-2.15 4.54 4.54 0 0 1 .94-.16h.34s-.46.07-1.21.33a5 5 0 0 0 -2.48 2.16 5.56 5.56 0 0 0 -.55 4.72 4.63 4.63 0 0 0 4.81 2.75 4.84 4.84 0 0 0 4.5-3.29 5.33 5.33 0 0 0 -1.11-4.6 5.45 5.45 0 0 0 -2.86-1.93c-.75-.2-1.21-.15-1.21-.21z" fill="#263238"/><path d="m359.26 234.64a1.83 1.83 0 0 1 -.54.17c-.36.08-.88.24-1.58.36a37.57 37.57 0 0 1 -5.93.69 40.24 40.24 0 0 1 -34.21-16.56 36.91 36.91 0 0 1 -3.14-5.08c-.34-.63-.54-1.14-.7-1.47a1.93 1.93 0 0 1 -.2-.53s.39.67 1.07 1.9a44.89 44.89 0 0 0 3.26 5 41 41 0 0 0 33.88 16.41 43.24 43.24 0 0 0 5.92-.52c1.4-.26 2.17-.41 2.17-.37z" fill="#263238"/><path d="m354.34 242.13a13.62 13.62 0 0 1 1.9-2.35 39.6 39.6 0 0 1 5.52-4.9l.08.46-.88-.27a42.63 42.63 0 0 1 -7.38-3.09c-.91-.48-1.62-.91-2.1-1.22s-.73-.51-.71-.54 1.14.55 3 1.43a54.78 54.78 0 0 0 7.37 2.92l.88.27.5.15-.42.31a50.76 50.76 0 0 0 -5.58 4.73c-1.36 1.3-2.12 2.14-2.18 2.1z" fill="#263238"/><path d="m523.33 141.32a5.16 5.16 0 0 1 .81-.24c.54-.12 1.32-.36 2.35-.55a55.11 55.11 0 0 1 8.8-1.09 54.37 54.37 0 0 1 13.13 1 49.43 49.43 0 0 1 15.08 5.66 45.06 45.06 0 0 1 12.17 10.53 42.27 42.27 0 0 1 6.6 11.38 37.26 37.26 0 0 1 2.23 8.59c.18 1 .17 1.86.23 2.41a4.85 4.85 0 0 1 0 .84 5.29 5.29 0 0 1 -.13-.83c-.09-.55-.11-1.36-.32-2.39a39.47 39.47 0 0 0 -2.37-8.48 42.9 42.9 0 0 0 -6.63-11.21 45.11 45.11 0 0 0 -12.07-10.39 49.86 49.86 0 0 0 -14.91-5.64 55.41 55.41 0 0 0 -13-1.09 60.2 60.2 0 0 0 -8.78.92c-1 .16-1.82.36-2.37.46a4.94 4.94 0 0 1 -.82.12z" fill="#263238"/><path d="m525.37 135.16a3.62 3.62 0 0 1 -.66.76c-.44.47-1.1 1.12-1.94 1.91-1.68 1.58-4.07 3.68-6.85 5.84l-.39.3-.23-.45a11.46 11.46 0 0 1 4.83-.26 20.29 20.29 0 0 1 3.79 1c1.05.37 1.87.71 2.43.95a3.53 3.53 0 0 1 .86.44c0 .07-1.3-.4-3.4-1a23.31 23.31 0 0 0 -3.74-.83 11.35 11.35 0 0 0 -4.63.29l-1.29.36 1.06-.82.39-.3c2.77-2.15 5.19-4.2 6.92-5.7a31.09 31.09 0 0 1 2.85-2.49z" fill="#263238"/><path d="m417.71 253.14a2.49 2.49 0 0 1 .35.55l.92 1.63.66 1.18c.23.44.45.93.7 1.45.49 1.05 1.09 2.22 1.61 3.58l.85 2.12c.29.73.53 1.53.81 2.33.59 1.61 1 3.38 1.56 5.24a80.73 80.73 0 0 1 2 12.33 79.68 79.68 0 0 1 -.1 12.51c-.22 1.91-.4 3.73-.73 5.41-.15.84-.27 1.66-.44 2.44s-.35 1.51-.52 2.22c-.29 1.42-.71 2.67-1 3.78-.17.55-.31 1.07-.47 1.54l-.46 1.27-.66 1.75a5.07 5.07 0 0 1 -.26.6 2.89 2.89 0 0 1 .16-.64c.15-.45.33-1 .57-1.77.12-.39.26-.82.42-1.28s.27-1 .42-1.55c.29-1.11.68-2.36 1-3.78q.22-1.07.48-2.22c.16-.78.26-1.59.4-2.43.32-1.67.47-3.48.68-5.38a82.69 82.69 0 0 0 .06-12.43 81.62 81.62 0 0 0 -2-12.26c-.5-1.84-.93-3.61-1.5-5.21-.27-.81-.5-1.6-.78-2.33s-.55-1.45-.82-2.12c-.48-1.37-1.07-2.54-1.52-3.59-.24-.53-.45-1-.66-1.47l-.62-1.2-.83-1.67a2.41 2.41 0 0 1 -.28-.6z" fill="#263238"/><path d="m427.07 253.86a4.29 4.29 0 0 1 -1-.07 27.17 27.17 0 0 1 -2.81-.49 36.68 36.68 0 0 1 -9-3.27l.38-.24v1.29c.09 4.06 0 7.73-.18 10.39-.08 1.33-.17 2.4-.25 3.14a5.54 5.54 0 0 1 -.17 1.14 4.3 4.3 0 0 1 0-1.15c0-.86.05-1.91.08-3.15.07-2.65.12-6.32 0-10.36 0-.44 0-.88 0-1.28v-.45l.39.21a41.59 41.59 0 0 0 8.79 3.43c2.33.57 3.79.77 3.77.86z" fill="#263238"/><path d="m399.47 303.62a21.81 21.81 0 0 0 -23.47 27.62c-6.75-1.14-13.73 5.06-13.41 11.9s7.87 12.35 14.49 10.57c-.66 4 2.05 7.76 5.18 10.29a24.77 24.77 0 0 0 21.52 4.92c7.38-2 13.61-8.19 15-15.69-.23 1.52 1.59 2.47 3.09 2.78 4.91 1 10.32.31 14.36-2.65s6.41-8.37 5.08-13.2-6.73-8.39-11.56-7c4.78-5.37 3.83-14 .13-20.15a15.52 15.52 0 0 0 -6.94-6.62 10.83 10.83 0 0 0 -12.25 3.12c-3.39-3.64-7.53-6-11.28-5.86" fill="#fafafa"/><path d="m399.47 303.62a6.75 6.75 0 0 1 .85 0 9.87 9.87 0 0 1 2.48.44 18.8 18.8 0 0 1 8 5.35h-.18a10.88 10.88 0 0 1 7.39-3.9 10.63 10.63 0 0 1 5 .68 13 13 0 0 1 4.45 3.17 22.41 22.41 0 0 1 5.43 10.82 18 18 0 0 1 .1 6.71 13.18 13.18 0 0 1 -3 6.39l-.22-.36a9 9 0 0 1 2.79-.28 10.35 10.35 0 0 1 2.79.63 11 11 0 0 1 4.65 3.53 9.87 9.87 0 0 1 2 5.65 12.47 12.47 0 0 1 -1.31 6.05 14 14 0 0 1 -4 4.92 15.86 15.86 0 0 1 -5.91 2.75 19.76 19.76 0 0 1 -6.65.42c-.56-.06-1.13-.13-1.68-.23a7.81 7.81 0 0 1 -1.67-.45 4.52 4.52 0 0 1 -1.5-1 2.08 2.08 0 0 1 -.63-1.76l.51.09a20.75 20.75 0 0 1 -9.64 13.48 21.53 21.53 0 0 1 -10.22 3.12 25.59 25.59 0 0 1 -18.81-7.25 14.32 14.32 0 0 1 -2.85-4.1 8.56 8.56 0 0 1 -.7-4.86l.3.28a12 12 0 0 1 -10.56-2.71 12.39 12.39 0 0 1 -3.28-4.28 10.18 10.18 0 0 1 -.9-5.16 12.08 12.08 0 0 1 4.91-8.41 11.61 11.61 0 0 1 8.72-2.35l-.22.25a22.27 22.27 0 0 1 -.5-9.38 22.53 22.53 0 0 1 2.85-7.89 21.42 21.42 0 0 1 10-8.74 22.17 22.17 0 0 1 8.29-1.83 18.2 18.2 0 0 1 2.21.08l.76.09s-.26 0-.76 0a21.39 21.39 0 0 0 -2.21 0 22.25 22.25 0 0 0 -8.2 1.91 21.24 21.24 0 0 0 -9.84 8.7 22.32 22.32 0 0 0 -2.77 7.79 21.81 21.81 0 0 0 .53 9.21l.08.3-.3-.05a11.19 11.19 0 0 0 -8.4 2.3 11.62 11.62 0 0 0 -4.72 8.11 10.75 10.75 0 0 0 4 9 11.5 11.5 0 0 0 10.13 2.6l.37-.1-.06.37a8.09 8.09 0 0 0 .68 4.58 13.84 13.84 0 0 0 2.75 3.95 25 25 0 0 0 18.43 7.08 20.87 20.87 0 0 0 10-3.05 20.2 20.2 0 0 0 9.4-13.13l.51.09c-.16 1 .85 1.78 1.81 2.16a12.62 12.62 0 0 0 3.21.65 19.27 19.27 0 0 0 6.48-.4 15.36 15.36 0 0 0 5.73-2.66 13.38 13.38 0 0 0 3.89-4.74 11.9 11.9 0 0 0 1.27-5.81 9.44 9.44 0 0 0 -1.9-5.39c-2.28-3.05-6.27-4.72-9.71-3.73l-.71.2.49-.56a12.85 12.85 0 0 0 2.93-6.17 17.62 17.62 0 0 0 -.08-6.56 22.12 22.12 0 0 0 -5.29-10.66 12.61 12.61 0 0 0 -4.32-3.11 10.28 10.28 0 0 0 -4.81-.69 10.73 10.73 0 0 0 -7.24 3.75l-.08.11-.09-.1a19 19 0 0 0 -7.9-5.4 10.8 10.8 0 0 0 -2.45-.49c-.28 0-.5 0-.64 0z" fill="#263238"/><path d="m391.38 325.16-.38 20.84c2.21 1.53 4.5 2.94 7.8 3l15.75-.16-.81-24.3z" fill="#e0e0e0"/><path d="m390.28 324.08-.43 20.88 7.8 3.03 15.75-.16.29-23.52z" fill="#25bcbf"/><path d="m392.5 343.36-2.65 1.6a9 9 0 0 0 3 2.11 13 13 0 0 0 4.79.92 8.64 8.64 0 0 1 -5.14-4.63z" fill="#25bcbf"/><path d="m392.5 343.36c-1 .94-2 2.07-2.65 1.6a9 9 0 0 0 3 2.11 13 13 0 0 0 4.79.92 8.64 8.64 0 0 1 -5.14-4.63z" opacity=".3"/><path d="m411 331.72s-4 0-8.9 0-8.9-.11-8.9-.15 4 0 8.9 0 8.9.11 8.9.15z" fill="#263238"/><path d="m410.9 334.92s-4 0-8.9 0-8.9-.11-8.9-.15 4 0 8.9 0 8.9.12 8.9.15z" fill="#263238"/><path d="m411 337.77s-4 0-8.9 0-8.9-.12-8.89-.15 4 0 8.89 0 8.9.11 8.9.15z" fill="#263238"/><path d="m410.93 340.51s-4 0-8.9 0-8.9-.12-8.9-.15 4 0 8.9 0 8.9.11 8.9.15z" fill="#263238"/><path d="m156.7 211.26c-12.6 6.52-22.26 17.76-29.2 30.12s-11.42 25.94-15.86 39.42l-3.88 69.49c14.66-24.93 26.42-54.24 29.6-83l-9.75-.87c6.54-1 12-5.73 15.52-11.35s5.29-12.1 7-18.48l-11.9 1.77a44.1 44.1 0 0 0 18.47-27.1z" fill="#455a64"/><path d="m156.7 211.26c-12.6 6.52-22.26 17.76-29.2 30.12s-11.42 25.94-15.86 39.42l-3.88 69.49c14.66-24.93 26.42-54.24 29.6-83l-9.75-.87c6.54-1 12-5.73 15.52-11.35s5.29-12.1 7-18.48l-11.9 1.77a44.1 44.1 0 0 0 18.47-27.1z" opacity=".3"/><path d="m105.59 366.57s-31.81-38.07-31.44-74.42h12.85s-14-9.15-12.85-14.32 1.47-24.6 1.47-24.6l11.75 2.94s-8.81-4.4-9.92-11.38 2.55-39.29 2.55-39.29 14.34 15.06 18.75 30.5 16 33.41 12.57 80.4-5.73 50.17-5.73 50.17z" fill="#455a64"/><path d="m121.72 370.17s34.46-23 42.12-52.26l-10.33-2.81s13.23-4.33 13.47-8.7 4.2-20.1 4.2-20.1l-10.09-.21s8-1.62 10.46-7 6.53-32.09 6.53-32.09-14.81 9-21.73 20.4-20.14 23.37-27.7 61.9-6.93 40.87-6.93 40.87z" fill="#455a64"/><path d="m88.71 238.7a1.86 1.86 0 0 1 .11.4l.28 1.17c.23 1.06.57 2.58 1 4.52s1 4.37 1.5 7.17 1.23 6 1.87 9.52c1.36 7.06 2.79 15.5 4.27 24.89s2.86 19.75 4.14 30.65 2.21 21.31 3 30.78 1.24 18 1.52 25.22c.18 3.59.27 6.84.36 9.69s.15 5.31.17 7.32 0 3.55.06 4.63v1.2a3.33 3.33 0 0 1 0 .42 2.64 2.64 0 0 1 0-.41c0-.3 0-.7 0-1.21 0-1.08-.09-2.64-.15-4.62s-.14-4.47-.26-7.32-.23-6.1-.43-9.69c-.34-7.18-.91-15.71-1.64-25.19s-1.75-19.87-3-30.76-2.69-21.24-4.09-30.64-2.85-17.83-4.16-24.89c-.62-3.54-1.26-6.73-1.79-9.53s-1-5.22-1.42-7.19-.69-3.47-.9-4.54c-.1-.5-.17-.89-.23-1.18a2.13 2.13 0 0 1 -.21-.41z" fill="#263238"/><path d="m101.18 389.89s-29.11-33-38.15-53l6.82-2.89c-4.94.81-10-1.31-13.84-4.54s-6.66-7.47-9.42-11.66l9-1.52a33.43 33.43 0 0 1 -19.64-15.21c10.61 1.74 20.21 7.57 28.11 14.85 6.41 5.9 11.83 12.75 17 19.74a67 67 0 0 1 6.61 10.88c4.93 10.09 13.53 31.22 13.51 43.35z" fill="#455a64"/><path d="m164.3 266.18a1.6 1.6 0 0 1 -.14.34l-.45 1-1.78 3.66c-.78 1.58-1.73 3.53-2.8 5.8s-2.34 4.83-3.66 7.7c-2.68 5.72-5.77 12.58-9.09 20.25s-6.8 16.17-10.29 25.15-6.58 17.65-9.31 25.54-5 15.06-6.89 21.1c-1 3-1.76 5.76-2.49 8.16s-1.33 4.48-1.82 6.18l-1.15 3.9-.31 1a2 2 0 0 1 -.12.34 2.08 2.08 0 0 1 .07-.36l.26-1c.25-.93.6-2.25 1.06-3.94s1-3.79 1.73-6.2 1.48-5.16 2.41-8.18c1.82-6.06 4.11-13.23 6.79-21.15s5.82-16.57 9.29-25.57 7-17.49 10.33-25.16 6.47-14.51 9.2-20.21c1.34-2.87 2.62-5.43 3.72-7.68s2.08-4.19 2.89-5.76l1.87-3.62.49-.93a2.83 2.83 0 0 1 .19-.36z" fill="#263238"/><path d="m103.65 404a2.49 2.49 0 0 1 -.13-.6c-.07-.46-.17-1-.28-1.76s-.25-1.69-.45-2.77-.38-2.31-.67-3.65c-.52-2.71-1.27-5.9-2.22-9.42s-2.19-7.32-3.66-11.25-3.11-7.59-4.69-10.87-3.16-6.16-4.56-8.53c-.67-1.2-1.34-2.25-1.91-3.19s-1.07-1.73-1.49-2.38l-1-1.5a3.06 3.06 0 0 1 -.3-.54 2.54 2.54 0 0 1 .39.49l1 1.44c.45.63 1 1.41 1.58 2.34s1.28 2 2 3.15c1.44 2.36 3 5.24 4.67 8.51s3.25 6.95 4.75 10.89 2.67 7.79 3.63 11.32 1.65 6.75 2.12 9.47c.27 1.35.43 2.59.6 3.68s.28 2 .36 2.79l.18 1.76a2.42 2.42 0 0 1 .08.62z" fill="#263238"/><path d="m78.35 396.28h63.71v13h-63.71z" fill="#25bcbf"/><path d="m84.42 409.27 6.89 43.72h38.5l6.43-43.72z" fill="#25bcbf"/><path d="m138.15 409.27c0 .15-12.05.26-26.91.26s-26.92-.11-26.92-.26 12.05-.26 26.92-.26 26.91.12 26.91.26z" fill="#263238"/><path d="m578.2 437c3.41.56 6.91 1.13 10.31.43s6.7-3 7.51-6.25c.75-3-.72-6.17-.4-9.27.39-3.82 3.39-6.91 6.49-9.32s4.9-.55 6.95-3.85c2.73-4.38 2.69-6.78-.58-10.67 1.47-3.74 2.85-15.81 2.16-19-1-4.77-2.71-10.07-6.91-12.54-3.26-1.92-7-2.73-9.68-5.41-3.67-3.69-2.8-9.76-4.22-14.77-.29-1-.85-2.15-1.9-2.35a3.19 3.19 0 0 0 -2.45 1l-7.19 5.9a8 8 0 0 1 -1.49-6.8 23.57 23.57 0 0 0 -13 9.54 2 2 0 0 0 -1.69-2.44 5.09 5.09 0 0 0 -3.22.83 24.36 24.36 0 0 0 -7.7 35.93l4.73 28.36a7.31 7.31 0 0 0 -3.28 5.89c3.07 2.56 4.49 2.74 4.49 2.74-1 2.27-.61.58-1 2.27-.8 3.85 2.4 8.48 6.44 8.31a8.47 8.47 0 0 1 4.7.82c1.39.83 2.21 2.29 3.25 3.51a11.75 11.75 0 0 0 6.47 3.82 8.5 8.5 0 0 1 1.21-6.68z" fill="#263238"/><path d="m607.18 384.05-.45-1.37a27.84 27.84 0 0 0 -32.9-18.53c-13.15 3.11-27.63 6.72-34.48 9-14.17 4.78-11.77 19.72-11.77 19.72-.15 0-2.33.57-5.31 1.29a17.53 17.53 0 0 0 -12.82 21.58 17.53 17.53 0 0 0 21.21 12.44l54.65-13.82c15.18-3.47 25.8-15.23 21.87-30.31z" fill="#ffbe9d"/><path d="m527.58 392.91a36.14 36.14 0 0 0 11.47 16.75s-11.85-1.16-15.17-15.76z" fill="#eb996e"/><path d="m574 390.34c-.22.36 1.53 1.7 2.19 4.11s-.08 4.51.29 4.68c.17.1.63-.33 1-1.26a6.26 6.26 0 0 0 .14-3.85 6 6 0 0 0 -2.12-3.17c-.83-.58-1.44-.68-1.5-.51z" fill="#263238"/><path d="m570.18 391.81a2 2 0 0 0 -1.34 2.48 1.94 1.94 0 0 0 2.38 1.42 2 2 0 0 0 1.34-2.48 1.94 1.94 0 0 0 -2.38-1.42z" fill="#263238"/><path d="m555.61 388.4a15.18 15.18 0 0 0 -.51-3.76c-.12-.58-.18-1.14.17-1.36a3 3 0 0 1 1.77-.16l4.79.27c6.79.34 12.3.38 12.31.11s-5.48-.77-12.28-1.1l-4.78-.19a3.36 3.36 0 0 0 -2.29.42 1.46 1.46 0 0 0 -.52 1.18 4.28 4.28 0 0 0 .18 1 15 15 0 0 0 1.16 3.59z" fill="#263238"/><path d="m583.57 388.35c-.48.37.4 2.21.85 4.56s.41 4.39 1 4.53c.28.06.69-.42 1-1.33a7.79 7.79 0 0 0 -1.4-6.93c-.65-.72-1.21-1-1.45-.83z" fill="#263238"/><path d="m573.19 367.21c-.37.37.58 2.14 1.21 4.41s.81 4.25 1.32 4.38c.25.05.55-.42.7-1.3a8.83 8.83 0 0 0 -1.93-6.7c-.6-.69-1.11-.95-1.3-.79z" fill="#263238"/><path d="m574.41 416.65c.18.2 6.05 8.83-3.77 11.67s-10.65-7.61-10.37-7.71 14.14-3.96 14.14-3.96z" fill="#ffbe9d"/><path d="m564.86 422.54s-.08.2-.12.53a1.77 1.77 0 0 0 .34 1.29c.68.93 2.58 1.32 4.36.86a5.87 5.87 0 0 0 2.32-1.19 2 2 0 0 0 .94-1.66.91.91 0 0 0 -.76-.88c-.32-.05-.49.07-.53 0s.11-.26.54-.3a1.2 1.2 0 0 1 .72.21 1.37 1.37 0 0 1 .53.88 2.54 2.54 0 0 1 -1 2.23 6 6 0 0 1 -2.57 1.38c-2 .51-4.14 0-5-1.27a1.89 1.89 0 0 1 -.19-1.64c.18-.36.39-.47.42-.44z" fill="#eb996e"/><path d="m593.71 425.9c3-2.92 7-4.43 10.68-6.51s7.14-5.26 7.56-9.42l-.05-.08c.54-3.78-.48-8-3.56-10.26 5-2 8-7.48 8-12.84s-2.68-13.24-5.81-17.59c-2.42-3.37-6.38-6.22-12-9.5a50.62 50.62 0 0 0 -7.38-3.56l-14.59-1.07a6.35 6.35 0 0 0 -1.54-.92 2.62 2.62 0 0 0 -2.49 4.55 24.64 24.64 0 0 1 -2 1.71l-.12.11a14.24 14.24 0 0 0 -1.26 1.09l-14.11 7c4.12-.79 18.22-4.55 22.35-5.34a23.37 23.37 0 0 0 11.45 14.36c3 1.62 6.52 2.61 8.72 5.23 2.84 3.37 2.58 8.28 2.17 12.67l.11-.21a18.82 18.82 0 0 1 -2.67 6.6 58.13 58.13 0 0 0 -23.17 8.38c-1.06.66-3.18 2.28-3.34 3.52-.32 2.44 2.1 2.49 3.63 3.53 1.13.77 1.6 2.21 2 3.81a90.59 90.59 0 0 0 11 .2 9.33 9.33 0 0 0 .74 4.24l2.75-2a5.08 5.08 0 0 0 -.37 2 1.66 1.66 0 0 0 1.15 1.51c.77.14 1.52-.59 2.15-1.21z" fill="#263238"/><path d="m605.56 395.48a12 12 0 0 1 -1 1.78 10.69 10.69 0 0 1 -4.26 3.4 18.39 18.39 0 0 1 -3.59 1.27c-1.33.33-2.79.58-4.32.84a41.7 41.7 0 0 0 -4.77 1.06 16.34 16.34 0 0 0 -2.42.94 5.4 5.4 0 0 0 -2.18 1.61 2.26 2.26 0 0 0 -.19 2.22 3.36 3.36 0 0 0 1.49 1.58 7.74 7.74 0 0 0 4 .49l-.11-.29a12.63 12.63 0 0 0 -2.6 2.5 4.47 4.47 0 0 0 -.84 3.19 2.82 2.82 0 0 0 .63 1.43 2.48 2.48 0 0 0 1.24.77 2.51 2.51 0 0 0 1.36 0 1.82 1.82 0 0 0 1-.74l-.17-.12a9.65 9.65 0 0 0 -1.57 3.68 9.16 9.16 0 0 0 -.14 1.06 1.79 1.79 0 0 0 0 .37 1.93 1.93 0 0 0 .06-.37 9.18 9.18 0 0 1 .19-1 9.88 9.88 0 0 1 1.63-3.58l-.17-.12a1.92 1.92 0 0 1 -2.13.62 2.27 2.27 0 0 1 -1.11-.7 2.63 2.63 0 0 1 -.55-1.3 4.18 4.18 0 0 1 .81-3 12.38 12.38 0 0 1 2.56-2.42l.41-.32h-.52a7.45 7.45 0 0 1 -3.85-.46 3.1 3.1 0 0 1 -1.33-1.42 1.89 1.89 0 0 1 .16-1.88 5.15 5.15 0 0 1 2-1.5 16.4 16.4 0 0 1 2.37-.93 41.81 41.81 0 0 1 4.73-1.06c1.53-.28 3-.53 4.33-.88a18.45 18.45 0 0 0 3.62-1.33 10.5 10.5 0 0 0 4.27-3.54 5.91 5.91 0 0 0 .96-1.85z" fill="#455a64"/><path d="m580.5 354.16-.07.14-.17.43a4.33 4.33 0 0 0 -.24.7 6.94 6.94 0 0 0 -.25 1 13.2 13.2 0 0 0 .4 6.47 17 17 0 0 0 5.37 7.94 29.35 29.35 0 0 0 10.46 5.39c2 .62 4 1 5.91 1.58a19.47 19.47 0 0 1 5.19 2.15 10.25 10.25 0 0 1 3.56 3.55 7.41 7.41 0 0 1 .79 2.14 8 8 0 0 1 .11 2.11 8.76 8.76 0 0 1 -1.08 3.46 8.64 8.64 0 0 1 -1.72 2.15 9.84 9.84 0 0 1 -2 1.28s.06 0 .15 0l.43-.17a7.71 7.71 0 0 0 1.5-.95 8.86 8.86 0 0 0 1.8-2.16 8.7 8.7 0 0 0 1.15-3.54 8.07 8.07 0 0 0 -.09-2.18 7.39 7.39 0 0 0 -.8-2.23 10.38 10.38 0 0 0 -3.63-3.68 20.08 20.08 0 0 0 -5.28-2.21c-1.91-.55-3.91-1-5.9-1.59a29.07 29.07 0 0 1 -10.38-5.29 16.73 16.73 0 0 1 -5.34-7.78 13.43 13.43 0 0 1 -.51-6.37 22 22 0 0 1 .64-2.34z" fill="#455a64"/><path d="m586.54 351.28a2.88 2.88 0 0 0 -.23.61 11.74 11.74 0 0 0 -.41 1.73 15.48 15.48 0 0 0 -.2 2.63 17.87 17.87 0 0 0 .35 3.21 17.41 17.41 0 0 0 1 3.08 15.5 15.5 0 0 0 1.25 2.33 11.18 11.18 0 0 0 1.07 1.41c.28.31.44.48.46.46s-.56-.74-1.32-2a17.06 17.06 0 0 1 -1.16-2.31 18.6 18.6 0 0 1 -.94-3 20.36 20.36 0 0 1 -.37-3.15 17 17 0 0 1 .13-2.59c.16-1.5.44-2.39.37-2.41z" fill="#455a64"/><path d="m567.63 368.46c-.22.36 1.53 1.7 2.19 4.11s-.08 4.51.29 4.69c.17.09.63-.34 1-1.27a6.18 6.18 0 0 0 .14-3.85 6 6 0 0 0 -2.11-3.17c-.8-.58-1.41-.68-1.51-.51z" fill="#263238"/><path d="m564 371a2 2 0 0 0 -1.34 2.48 1.94 1.94 0 0 0 2.38 1.42 2 2 0 0 0 1.34-2.48 1.94 1.94 0 0 0 -2.38-1.42z" fill="#263238"/><path d="m553.51 395.14c0 .19-.61.38-1.59.17a5.45 5.45 0 0 1 -3.1-2.17 6.12 6.12 0 0 1 -1.21-3.56c0-1 .33-1.54.52-1.5s.32.57.58 1.35a9.77 9.77 0 0 0 1.37 2.79 7.49 7.49 0 0 0 2.24 2.06c.68.41 1.22.63 1.19.86z" fill="#263238"/><path d="m177.36 427.51-27.58 1.75s-11-27.44-16.17-27.62l1.48 53.6 43.08-1z" fill="#455a64"/><path d="m152.56 445.77a2.2 2.2 0 0 1 -2.46 1.58 2.11 2.11 0 0 1 -1.59-2.42 2.31 2.31 0 0 1 2.61-1.66 2.18 2.18 0 0 1 1.38 2.7" fill="#e0e0e0"/><path d="m135.09 455.24 4.33-.27-3-51.29s-1.11-2.35-2.78-2z" fill="#fff" opacity=".6"/><path d="m150 428.38c-.26 0-.34 1.33-1.15 2.64s-1.89 2-1.78 2.27 1.61-.2 2.56-1.8.64-3.17.37-3.11z" fill="#263238"/><path d="m147.55 422.83c-.26-.06-.67 1.09-1.75 2s-2.25 1.21-2.23 1.47 1.5.38 2.83-.79 1.4-2.69 1.15-2.68z" fill="#263238"/><path d="m140.73 419.82c0 .24 1.27.57 2.69-.15s2-1.95 1.73-2.05-1 .67-2.14 1.24-2.26.7-2.28.96z" fill="#263238"/><path d="m156.36 428.68c-.24.12.16 1.31.1 2.79s-.5 2.65-.27 2.78 1.13-1 1.18-2.75-.81-2.95-1.01-2.82z" fill="#263238"/><path d="m350.07 407.93-191.55 18.37 1.9 28.83 210.77-2.19z" fill="#263238"/><path d="m334.69 431.65a35.56 35.56 0 0 1 -4.78-9.23l-11.38-11.42-1.77.15c4.27 4.39 9 9.46 11.75 14.95 1.89 3.82 2.94 8 4.93 11.78 4.76 9 15.35 14.77 25.44 13.26a52.74 52.74 0 0 1 -24.19-19.49z" opacity=".3"/><path d="m269.56 416.67a26.53 26.53 0 0 0 -6.15 5.3c-9.07 9.74-17.35 19.78-24 31.32 5.56-.23 11.42-2.7 16-5.85a48 48 0 0 0 13.14-14.39 142.06 142.06 0 0 0 8.83-17.51 10 10 0 0 0 -7.82 1.13z" opacity=".3"/><path d="m232.92 414.63-14.28 23.65s-28.85-6.57-31.91-2.45l44.87 29.34 23.77-35.95z" fill="#455a64"/><path d="m233.78 445.41a2.18 2.18 0 0 1 -.1 2.92 2.1 2.1 0 0 1 -2.89-.07 2.31 2.31 0 0 1 .12-3.09 2.17 2.17 0 0 1 3 .41" fill="#e0e0e0"/><path d="m231.6 465.17 2.26-3.72-43.86-26.74s-2.57-.44-3.26 1.12z" fill="#fff" opacity=".6"/><path d="m218.06 437.58c-.14.22.89 1 1.51 2.45s.59 2.71.85 2.75.76-1.43 0-3.13-2.28-2.3-2.36-2.07z" fill="#263238"/><path d="m212.08 436.45c-.19.18.52 1.17.65 2.59s-.28 2.53-.06 2.66 1.17-1 1-2.77-1.45-2.69-1.59-2.48z" fill="#263238"/><path d="m205.72 440.34c.17.17 1.19-.72 1.41-2.29s-.49-2.72-.7-2.59 0 1.17-.2 2.46-.71 2.25-.51 2.42z" fill="#263238"/><path d="m221.91 432.55c0 .26 1.17.61 2.35 1.51s1.89 1.91 2.13 1.8-.18-1.5-1.59-2.53-2.88-1.02-2.89-.78z" fill="#263238"/><path d="m224.88 427.83c-.06.09.72.79 2.26 1.46a12.47 12.47 0 0 0 4.56 1 3.45 3.45 0 0 0 1-.08 1.14 1.14 0 0 0 .86-1.1 1.42 1.42 0 0 0 -.56-1.11 3.33 3.33 0 0 0 -.92-.44 10.2 10.2 0 0 0 -1.71-.43 9.74 9.74 0 0 0 -3 0c-1.67.29-2.56.87-2.51 1s1-.22 2.58-.32a10.36 10.36 0 0 1 2.75.18 9.84 9.84 0 0 1 1.55.44c.55.19 1 .45.94.74 0 .11 0 .15-.21.22a2.77 2.77 0 0 1 -.75.06 14.13 14.13 0 0 1 -1.63-.1 14.59 14.59 0 0 1 -2.72-.59 18.82 18.82 0 0 0 -2.49-.93z" fill="#263238"/><path d="m225 428.33c.06.09 1-.42 2-1.78a8.46 8.46 0 0 0 1.3-2.66 8 8 0 0 0 .32-1.74 2.19 2.19 0 0 0 -.69-2.07 1.24 1.24 0 0 0 -1.35 0 4.36 4.36 0 0 0 -.77.67 6.12 6.12 0 0 0 -1.54 4.46c.11 1.74.86 2.6.92 2.54a23.87 23.87 0 0 1 -.28-2.54 6.18 6.18 0 0 1 .67-2.58 5.62 5.62 0 0 1 .89-1.27c.38-.43.81-.7 1-.53a1.53 1.53 0 0 1 .3 1.25 8 8 0 0 1 -.24 1.58 9.19 9.19 0 0 1 -1 2.52c-.9 1.37-1.67 2.04-1.53 2.15z" fill="#263238"/><path d="m217.68 427.51s54.6-88.56 59.93-92.25 15-6.37 27 1.42 84.9 51.09 84.9 51.09l15.32 3.08-15.83 62.56-25.77-.68s-23.91-6.44-33.31-30.31l-36.4-37.21-44.39 60.73z" fill="#263238"/><path d="m389.47 387.77-1-.57-2.94-1.71-11.24-6.64-41.29-24.57c-8.68-5.24-18.23-10.9-28.32-17.26a35.1 35.1 0 0 0 -8.09-3.95 27.19 27.19 0 0 0 -4.5-1 22.75 22.75 0 0 0 -4.67-.07 20.33 20.33 0 0 0 -9 3 6.52 6.52 0 0 0 -1.79 1.56c-.54.6-1 1.28-1.54 1.92q-1.48 2-2.92 4c-7.63 11-15.19 22.87-23 35.17s-15.84 25.1-24 38.23l-7.29 11.76-.09-.36 31.44 18.43-.33.07 44.42-60.71.15-.21.17.19 36.36 37.26a49.8 49.8 0 0 0 10.63 16.34 56 56 0 0 0 11.45 9 58.74 58.74 0 0 0 8.14 4c1 .39 1.7.63 2.19.8l.75.26s-.26-.06-.76-.21-1.25-.4-2.21-.77a56.44 56.44 0 0 1 -8.2-3.94 55.14 55.14 0 0 1 -11.53-8.93 49.7 49.7 0 0 1 -10.75-16.4v.06l-36.44-37.18h.32l-44.35 60.76-.14.19-.2-.12-31.44-18.42-.23-.14.14-.22 7.28-11.76c8.17-13.14 16.19-25.93 24-38.24s15.43-24.15 23.08-35.17q1.44-2.06 2.94-4c.52-.65 1-1.32 1.56-1.94a6.58 6.58 0 0 1 1.89-1.64 20.76 20.76 0 0 1 9.18-3.06 23 23 0 0 1 4.77.09 26.82 26.82 0 0 1 4.57 1 34.81 34.81 0 0 1 8.19 4c10.07 6.36 19.62 12 28.28 17.3l41.17 24.72 11.2 6.72 2.9 1.76c.77.38 1.09.6 1.09.6z" fill="#455a64"/><path d="m291.51 370.2a7.49 7.49 0 0 1 .66 2.05c.33 1.29.71 3.09 1 5.09s.49 3.84.56 5.17a8.35 8.35 0 0 1 0 2.15c-.15 0-.44-3.25-1.06-7.24s-1.3-7.18-1.16-7.22z" fill="#455a64"/><path d="m389.43 386.39 43.65 2.92 40.17-1.37c4.22-.15 48.59 4.59 48.59 4.59-.17 7.35.44 9.3 4.49 16.81l-27.94 45.1-122.49-.74s-4.78-8.55-2-26.64 15.53-40.67 15.53-40.67z" fill="#25bcbf"/><path d="m483.66 441.82s5.12 11.64 14.87 12.61 33.6.34 33.6.34l15-32.48-12.06-3.62a26.12 26.12 0 0 1 -3.1-5.78c-1.13-3.05-5.65-3.55-5.65-3.55s-43.98 10.03-42.66 32.48z" fill="#25bcbf"/><path d="m509.09 441.65s-.08-.12-.18-.36a10.13 10.13 0 0 1 -.35-1.11 12 12 0 0 1 -.25-4.26 15 15 0 0 1 2.06-6 18.58 18.58 0 0 1 5.38-5.58c4.59-3.17 9.6-4.27 13.09-4.93 1.77-.32 3.21-.51 4.2-.63a8.17 8.17 0 0 1 1.56-.13 8.79 8.79 0 0 1 -1.53.33c-1 .18-2.41.43-4.16.79-3.46.75-8.38 1.9-12.86 5a18.59 18.59 0 0 0 -5.27 5.4 15.35 15.35 0 0 0 -2.11 5.79 14.63 14.63 0 0 0 .42 5.69z" fill="#263238"/><path d="m511.1 410a10.77 10.77 0 0 1 2.45-.52 48.83 48.83 0 0 1 6-.49 47.57 47.57 0 0 1 6 .25 10.9 10.9 0 0 1 2.47.42 13.8 13.8 0 0 1 -2.5-.05c-1.54-.08-3.66-.15-6-.1s-4.46.2-6 .34a13.87 13.87 0 0 1 -2.42.15z" fill="#263238"/><path d="m492.27 445.64c0 .14-26.11.39-58.3.55s-58.31.17-58.31 0 26.1-.39 58.31-.55 58.3-.15 58.3 0z" fill="#263238"/><path d="m509.75 428.75a18.81 18.81 0 0 0 -5.45 7.95c-.95 3.1-.52 6.78 1.72 9.14a2.43 2.43 0 0 0 1.57.89c1 0 1.82-1.05 1.89-2.09a9.22 9.22 0 0 0 -.63-3 14.36 14.36 0 0 1 2.76-12.35 23.74 23.74 0 0 1 10.61-7.42 64.28 64.28 0 0 1 12-3.13c-8.88.54-17.99 3.9-24.47 10.01z" opacity=".3"/><path d="m521.24 409.43a13.46 13.46 0 0 1 -1.48-2.29 37.81 37.81 0 0 1 -2.88-5.95 22.52 22.52 0 0 1 -1.21-6.51 10.92 10.92 0 0 1 .1-2.74 20.64 20.64 0 0 1 .27 2.71 26.68 26.68 0 0 0 1.34 6.36 50.23 50.23 0 0 0 2.7 5.95 14.42 14.42 0 0 1 1.16 2.47z" fill="#263238"/><path d="m523.05 403a9.69 9.69 0 0 1 -2.21.18 9.23 9.23 0 0 1 -2.22.15 3.53 3.53 0 0 1 2.18-.67 3.43 3.43 0 0 1 2.25.34z" fill="#263238"/><path d="m521.53 395.88a7.36 7.36 0 0 1 -2.43.45 7.27 7.27 0 0 1 -2.46.14 5.25 5.25 0 0 1 2.4-.66 5.19 5.19 0 0 1 2.49.07z" fill="#263238"/><path d="m541.66 421.24c0 .06-.73-.19-2.08-.25a17.36 17.36 0 0 0 -5.62.83 51 51 0 0 0 -7.92 3 18.79 18.79 0 0 0 -7.69 6.68 17.73 17.73 0 0 0 -2.81 9.77 17.42 17.42 0 0 0 2.14 8.07 18.37 18.37 0 0 0 3.44 4.52c1 .93 1.6 1.37 1.57 1.41a3 3 0 0 1 -.47-.29 13.15 13.15 0 0 1 -1.24-1 17.66 17.66 0 0 1 -5.92-12.73 18 18 0 0 1 2.85-10.06 19 19 0 0 1 7.91-6.83 48.13 48.13 0 0 1 8-3 16.19 16.19 0 0 1 5.73-.68 9.17 9.17 0 0 1 1.55.27 2.61 2.61 0 0 1 .56.29z" fill="#263238"/><path d="m495.3 452.93a2.83 2.83 0 0 1 -.42-.78 17 17 0 0 1 -.84-2.27 24.38 24.38 0 0 1 .61-15.73 15.86 15.86 0 0 1 1-2.19 2.93 2.93 0 0 1 .48-.75c.08 0-.49 1.16-1.15 3.07a27.16 27.16 0 0 0 -.6 15.5c.52 1.95 1.01 3.12.92 3.15z" fill="#263238"/><path d="m384.31 418.62a6.49 6.49 0 0 1 .39-1.2c.27-.76.7-1.86 1.25-3.2 1.09-2.69 2.68-6.37 4.59-10.37s3.78-7.55 5.19-10.09c.71-1.27 1.29-2.29 1.71-3a5.45 5.45 0 0 1 .7-1 6.93 6.93 0 0 1 -.52 1.15c-.42.81-.94 1.84-1.56 3.06-1.33 2.57-3.14 6.15-5.05 10.13s-3.55 7.64-4.73 10.29c-.55 1.25-1 2.3-1.4 3.14a4.71 4.71 0 0 1 -.57 1.09z" fill="#263238"/><path d="m525.08 428.93s-9.12 7-5 16.34 11.92 9.08 11.92 9.08 45.34 2.24 53.24-.53 17-4.47 17-12.8-.12-10.11-5.54-12.7-49.15-6.48-49.15-6.48-15.7.63-22.47 7.09z" fill="#ffbe9d"/><path d="m525.08 428.93.3-.28.92-.8c.42-.33 1-.68 1.64-1.13s1.47-.86 2.42-1.25a50.76 50.76 0 0 1 17.18-3.8c8.94.8 20.19 1.84 33 3.45 3.19.4 6.47.87 9.84 1.43l2.53.47c.84.18 1.69.38 2.54.6l1.28.44c.4.18.8.38 1.19.59a11.5 11.5 0 0 1 2.25 1.51 5.92 5.92 0 0 1 1.59 2.28 10.58 10.58 0 0 1 .58 2.71c.17 1.83.16 3.67.16 5.52a9.42 9.42 0 0 1 -1.49 5.45 12 12 0 0 1 -4.37 3.71 55.88 55.88 0 0 1 -8.73 3.37l-2.18.72c-.71.26-1.49.39-2.24.59-1.5.23-3 .43-4.5.52-6 .43-11.74.43-17.26.41-11.05-.1-21.11-.48-29.74-.89a11.33 11.33 0 0 1 -3.84-.79 12.88 12.88 0 0 1 -3.23-1.81 15.66 15.66 0 0 1 -4.31-5.18 13.51 13.51 0 0 1 -1.7-5.62 11.62 11.62 0 0 1 .72-4.88 16.77 16.77 0 0 1 3.67-5.75 13.85 13.85 0 0 1 1.29-1.22 5.51 5.51 0 0 1 .48-.37l-.44.41c-.29.28-.73.68-1.25 1.26a17.24 17.24 0 0 0 -3.54 5.74 11.31 11.31 0 0 0 -.66 4.8 13.15 13.15 0 0 0 1.71 5.48 15.27 15.27 0 0 0 4.24 5.05 12.55 12.55 0 0 0 3.16 1.74 10.93 10.93 0 0 0 3.69.75c8.62.37 18.68.72 29.72.79 5.52 0 11.29 0 17.22-.43 1.49-.09 3-.3 4.45-.52.72-.19 1.44-.31 2.17-.57l2.18-.73a54 54 0 0 0 8.64-3.33 11.38 11.38 0 0 0 4.19-3.54 9 9 0 0 0 1.41-5.16c0-1.85 0-3.68-.16-5.47a10.49 10.49 0 0 0 -.55-2.58 5.4 5.4 0 0 0 -1.45-2.08 11 11 0 0 0 -2.15-1.45c-.38-.2-.77-.4-1.16-.58l-1.21-.41c-.83-.22-1.67-.41-2.5-.6l-2.52-.47q-5-.84-9.81-1.44c-12.76-1.64-24-2.73-32.94-3.59a51.59 51.59 0 0 0 -17.11 3.64c-1 .37-1.73.86-2.43 1.2s-1.23.77-1.66 1.08l-.94.76c-.17.17-.29.25-.29.25z" fill="#eb996e"/><path d="m587.57 430.53a9.75 9.75 0 0 1 -1.52-.37l-4.05-1.16c-3.46-1-8.26-2.2-13.62-3.34s-10.26-2-13.82-2.48l-4.21-.62a10.07 10.07 0 0 1 -1.54-.27 8.44 8.44 0 0 1 1.57.07c1 .08 2.45.23 4.23.45 3.58.44 8.5 1.21 13.87 2.34s10.18 2.45 13.63 3.5c1.72.53 3.1 1 4.05 1.31a10.43 10.43 0 0 1 1.41.57z" fill="#eb996e"/></svg>